<svg id="Background_Simple" data-name="Background Simple" xmlns="http://www.w3.org/2000/svg" viewBox="0 0 445.21 442.82"><defs><style>.cls-1{fill:#f6e0e0;}.cls-2{fill:#283237;}.cls-3{fill:#f5f5f5;}.cls-10,.cls-11,.cls-12,.cls-13,.cls-14,.cls-15,.cls-16,.cls-17,.cls-18,.cls-3,.cls-4,.cls-5,.cls-6,.cls-7,.cls-8,.cls-9{stroke:#000;stroke-miterlimit:10;}.cls-11,.cls-13,.cls-16,.cls-3,.cls-4,.cls-5,.cls-7,.cls-8{stroke-width:0.5px;}.cls-4{fill:#ebebeb;}.cls-10,.cls-5{fill:#e0e0e0;}.cls-11,.cls-18,.cls-6{fill:#bbd8a2;}.cls-10,.cls-12,.cls-6,.cls-9{stroke-width:0.25px;}.cls-7{fill:none;}.cls-15,.cls-8{fill:#ef9997;}.cls-9{fill:#fafafa;}.cls-12,.cls-14,.cls-16{fill:#fff;}.cls-13{fill:#ffe3a7;}.cls-14,.cls-15,.cls-17,.cls-18{stroke-width:0.75px;}.cls-17{fill:#d8b34b;}</style></defs><title>ALVO</title><path class="cls-1" d="M152.71,42.55c-28.54,11.9-50.15,31.84-70.1,54.81a301,301,0,0,0-44,67.6c-11.64,24.33-18.2,53.93-1,77.39,10.65,14.54,26.42,21.12,41.1,30.8,2.71,1.78,6.51,3.61,6.48,7.17,0,5.4-10.3,11.15-13.82,14.24-8.69,7.61-17.11,15.56-24.35,24.51-10.59,13.09-18.68,28.57-20.19,45.12-1.64,18,4.71,36.23,15.42,51.08,15.59,21.61,40.29,38.45,66.12,46.59,13.81,4.36,28.46,5.66,42.92,5.22a227.07,227.07,0,0,0,43.54-5.68c22.06-5.07,45-13.14,67.94-8.33,24.55,5.16,48.52,11.27,73.43,14.9,32,4.67,77.81,10.62,103.92-12.09,18.76-16.31,27.52-42.65,29.87-66.24,1.39-14,1.12-29.72-3.71-43.14-6.54-18.17-18.46-34.9-27.84-51.77-5.79-10.43-10.91-21.5-13-33.24-2.27-12.94,1.76-21.37,8.29-32.52,23.35-39.82,42.43-97.16,17.64-140.24-7.78-13.53-22.84-19.83-38.62-20.35-13.83-.45-27.44,3.31-40.41,8-24.39,8.75-63,31.06-88.73,16.16-14.86-8.6-20.53-26.43-31-38.95-11.24-13.46-28.56-20.31-46.19-21.24C188.42,31.37,169.2,35.68,152.71,42.55Z" transform="translate(-26.52 -29.5)"/><path class="cls-2" d="M383.26,76.75c-.09.12.3.57.85,1s1.09.68,1.18.57-.29-.57-.86-1S383.34,76.63,383.26,76.75Z" transform="translate(-26.52 -29.5)"/><path class="cls-2" d="M374.37,71.68a6.54,6.54,0,0,0,2.17,1.39A6.33,6.33,0,0,0,379,74c.07-.14-.9-.76-2.17-1.39A6.1,6.1,0,0,0,374.37,71.68Z" transform="translate(-26.52 -29.5)"/><path class="cls-2" d="M364.64,68.63a6.36,6.36,0,0,0,2.41.9,6.27,6.27,0,0,0,2.53.37,12,12,0,0,0-4.94-1.27Z" transform="translate(-26.52 -29.5)"/><path class="cls-2" d="M354.52,67.62a6.24,6.24,0,0,0,2.53.4,6.45,6.45,0,0,0,2.56-.15,6.17,6.17,0,0,0-2.54-.4A6.07,6.07,0,0,0,354.52,67.62Z" transform="translate(-26.52 -29.5)"/><path class="cls-2" d="M344.38,68.69a12.14,12.14,0,0,0,5.05-.8,12.14,12.14,0,0,0-5.05.8Z" transform="translate(-26.52 -29.5)"/><path class="cls-2" d="M334.68,71.86a6.2,6.2,0,0,0,2.48-.67A6.5,6.5,0,0,0,339.45,70a6,6,0,0,0-2.48.67A6.07,6.07,0,0,0,334.68,71.86Z" transform="translate(-26.52 -29.5)"/><path class="cls-2" d="M325.84,77.1a6.11,6.11,0,0,0,2.29-1.2,7.1,7.1,0,0,0,2-1.66c-.08-.14-1.1.4-2.29,1.2S325.76,77,325.84,77.1Z" transform="translate(-26.52 -29.5)"/><path class="cls-2" d="M317.87,83.68c.1.11,1.05-.55,2.13-1.49s1.87-1.78,1.78-1.9-1,.55-2.12,1.49S317.78,83.56,317.87,83.68Z" transform="translate(-26.52 -29.5)"/><path class="cls-2" d="M310.18,90.6c.1.12,1-.56,2.1-1.52s1.85-1.82,1.75-1.93-1,.57-2.1,1.52S310.09,90.49,310.18,90.6Z" transform="translate(-26.52 -29.5)"/><path class="cls-2" d="M302.08,97c.08.13,1.08-.46,2.23-1.31s2-1.65,1.92-1.77A6.72,6.72,0,0,0,304,95.25C302.86,96.1,302,96.89,302.08,97Z" transform="translate(-26.52 -29.5)"/><path class="cls-2" d="M293,101.82a5.44,5.44,0,0,0,2.48-.73,5.51,5.51,0,0,0,2.19-1.39,7.24,7.24,0,0,0-2.4.89A7.53,7.53,0,0,0,293,101.82Z" transform="translate(-26.52 -29.5)"/><path class="cls-2" d="M283,103.75a5.21,5.21,0,0,0,2.57.11,5.31,5.31,0,0,0,2.5-.65,7.16,7.16,0,0,0-2.55.1A7.72,7.72,0,0,0,283,103.75Z" transform="translate(-26.52 -29.5)"/><path class="cls-2" d="M273,102.34a8.78,8.78,0,0,0,5,1.12,7.37,7.37,0,0,0-2.45-.73A7.51,7.51,0,0,0,273,102.34Z" transform="translate(-26.52 -29.5)"/><path class="cls-2" d="M264,97.63c-.09.12.75,1,2,1.71a5.17,5.17,0,0,0,2.36,1c.06-.14-.9-.76-2.08-1.51A8,8,0,0,0,264,97.63Z" transform="translate(-26.52 -29.5)"/><path class="cls-2" d="M257.2,89.86a5.48,5.48,0,0,0,1.19,2.35c.84,1.19,1.71,2,1.82,1.88a8.48,8.48,0,0,0-1.39-2.2C258,90.73,257.33,89.79,257.2,89.86Z" transform="translate(-26.52 -29.5)"/><path class="cls-2" d="M253.68,80.07a5.47,5.47,0,0,0,.29,2.64,5.38,5.38,0,0,0,1,2.43,8.43,8.43,0,0,0-.53-2.58A8.8,8.8,0,0,0,253.68,80.07Z" transform="translate(-26.52 -29.5)"/><path class="cls-2" d="M253.87,69.63a5.34,5.34,0,0,0-.69,2.56,5.52,5.52,0,0,0,.09,2.65,8.82,8.82,0,0,0,.44-2.59A8.63,8.63,0,0,0,253.87,69.63Z" transform="translate(-26.52 -29.5)"/><path class="cls-2" d="M258.22,60.19c-.11-.09-.94.76-1.69,2a5.22,5.22,0,0,0-1,2.46A9.38,9.38,0,0,0,257,62.49,9.27,9.27,0,0,0,258.22,60.19Z" transform="translate(-26.52 -29.5)"/><path class="cls-2" d="M266,53.45a5.2,5.2,0,0,0-2.32,1.15c-1.18.83-2,1.7-1.89,1.82a8.47,8.47,0,0,0,2.18-1.37C265.1,54.24,266,53.59,266,53.45Z" transform="translate(-26.52 -29.5)"/><path class="cls-2" d="M275.69,50.52a4.82,4.82,0,0,0-2.57,0,5,5,0,0,0-2.44.88,8.35,8.35,0,0,0,2.53-.34A8.8,8.8,0,0,0,275.69,50.52Z" transform="translate(-26.52 -29.5)"/><path class="cls-2" d="M285.62,52.39a5,5,0,0,0-2.31-1.17,4.77,4.77,0,0,0-2.54-.37,8.61,8.61,0,0,0,2.39.89A8.3,8.3,0,0,0,285.62,52.39Z" transform="translate(-26.52 -29.5)"/><path class="cls-2" d="M294,58.26c.1-.11-.63-1-1.73-1.95a5.38,5.38,0,0,0-2.2-1.37c-.09.13.79.88,1.86,1.79S293.89,58.37,294,58.26Z" transform="translate(-26.52 -29.5)"/><path class="cls-2" d="M300.36,66.41a5.83,5.83,0,0,0-1.19-2.34c-.82-1.2-1.64-2-1.75-1.94a7.87,7.87,0,0,0,1.31,2.25C299.54,65.56,300.23,66.49,300.36,66.41Z" transform="translate(-26.52 -29.5)"/><path class="cls-2" d="M304.84,75.81a6.53,6.53,0,0,0-.76-2.52,6.48,6.48,0,0,0-1.25-2.3,6.78,6.78,0,0,0,.76,2.52A6.6,6.6,0,0,0,304.84,75.81Z" transform="translate(-26.52 -29.5)"/><path class="cls-2" d="M307.29,86a6,6,0,0,0-.13-2.64,6.06,6.06,0,0,0-.81-2.52,7.78,7.78,0,0,0,.28,2.62A7.85,7.85,0,0,0,307.29,86Z" transform="translate(-26.52 -29.5)"/><path class="cls-2" d="M307.16,96.46a5.88,5.88,0,0,0,.57-2.59,5.82,5.82,0,0,0-.14-2.64,8,8,0,0,0-.39,2.6A8.18,8.18,0,0,0,307.16,96.46Z" transform="translate(-26.52 -29.5)"/><path class="cls-2" d="M303.91,106.38a5.6,5.6,0,0,0,1.35-2.26,5.54,5.54,0,0,0,.67-2.56,8.39,8.39,0,0,0-1.16,2.35A8,8,0,0,0,303.91,106.38Z" transform="translate(-26.52 -29.5)"/><path class="cls-2" d="M297.8,114.78c.1.11,1-.63,1.95-1.74a5.62,5.62,0,0,0,1.41-2.22c-.12-.09-.89.78-1.81,1.86A8,8,0,0,0,297.8,114.78Z" transform="translate(-26.52 -29.5)"/><path class="cls-2" d="M289.69,121.12A5.52,5.52,0,0,0,292,120c1.19-.81,2-1.63,1.94-1.75a7.56,7.56,0,0,0-2.23,1.29C290.55,120.31,289.61,121,289.69,121.12Z" transform="translate(-26.52 -29.5)"/><path class="cls-2" d="M280.26,125.09a9.23,9.23,0,0,0,4.84-1.67,7.32,7.32,0,0,0-2.48.66A7.57,7.57,0,0,0,280.26,125.09Z" transform="translate(-26.52 -29.5)"/><path class="cls-2" d="M270.18,126.49a5.44,5.44,0,0,0,2.56.15,5.66,5.66,0,0,0,2.52-.54,7.1,7.1,0,0,0-2.56,0A7.27,7.27,0,0,0,270.18,126.49Z" transform="translate(-26.52 -29.5)"/><path class="cls-2" d="M260,125.58a11.88,11.88,0,0,0,5,.73,6.25,6.25,0,0,0-2.49-.64A6.59,6.59,0,0,0,260,125.58Z" transform="translate(-26.52 -29.5)"/><path class="cls-2" d="M250.26,122.68a6.16,6.16,0,0,0,2.33,1.1,6,6,0,0,0,2.5.58,6.36,6.36,0,0,0-2.33-1.1A6.24,6.24,0,0,0,250.26,122.68Z" transform="translate(-26.52 -29.5)"/><path class="cls-2" d="M241.13,118.08c-.08.13.85.82,2.08,1.53a6.43,6.43,0,0,0,2.39,1,6.25,6.25,0,0,0-2.13-1.45A6.47,6.47,0,0,0,241.13,118.08Z" transform="translate(-26.52 -29.5)"/><path class="cls-2" d="M232.6,112.36c-.09.13.79.89,2,1.7a6,6,0,0,0,2.26,1.23c.08-.12-.8-.88-2-1.69A6.34,6.34,0,0,0,232.6,112.36Z" transform="translate(-26.52 -29.5)"/><path class="cls-2" d="M224.1,106.6c-.08.13.82.87,2,1.64a6.13,6.13,0,0,0,2.28,1.18c.09-.12-.81-.86-2-1.64A6.21,6.21,0,0,0,224.1,106.6Z" transform="translate(-26.52 -29.5)"/><path class="cls-2" d="M215,101.92a6.37,6.37,0,0,0,2.21,1.31,6.3,6.3,0,0,0,2.43.82c.07-.14-.92-.72-2.21-1.32A6.12,6.12,0,0,0,215,101.92Z" transform="translate(-26.52 -29.5)"/><path class="cls-2" d="M205.13,99.51a7.27,7.27,0,0,0,2.47.62,7.15,7.15,0,0,0,2.54.25,9.18,9.18,0,0,0-5-.87Z" transform="translate(-26.52 -29.5)"/><path class="cls-2" d="M195,99.74a7.21,7.21,0,0,0,2.55,0A7.3,7.3,0,0,0,200,99.3a5.42,5.42,0,0,0-2.57-.14A5.51,5.51,0,0,0,195,99.74Z" transform="translate(-26.52 -29.5)"/><path class="cls-2" d="M185.15,102.55a7.29,7.29,0,0,0,2.47-.68,7.76,7.76,0,0,0,2.35-1,5.28,5.28,0,0,0-2.52.52A5.73,5.73,0,0,0,185.15,102.55Z" transform="translate(-26.52 -29.5)"/><path class="cls-2" d="M176.37,107.87a7.48,7.48,0,0,0,2.21-1.33c1.16-.81,2.09-1.5,2-1.63a5.49,5.49,0,0,0-2.3,1.18C177.11,106.91,176.28,107.75,176.37,107.87Z" transform="translate(-26.52 -29.5)"/><path class="cls-2" d="M169.19,115.32c.12.09.9-.77,1.82-1.86a7.87,7.87,0,0,0,1.55-2.1c-.11-.11-1,.64-1.95,1.74A5.86,5.86,0,0,0,169.19,115.32Z" transform="translate(-26.52 -29.5)"/><path class="cls-2" d="M164,124.36a7.61,7.61,0,0,0,1.33-2.26,7.75,7.75,0,0,0,1-2.43,6,6,0,0,0-1.47,2.18A6,6,0,0,0,164,124.36Z" transform="translate(-26.52 -29.5)"/><path class="cls-2" d="M161.66,131.84c.14,0,.4-.51.57-1.2s.19-1.3.05-1.34-.39.49-.56,1.2S161.52,131.81,161.66,131.84Z" transform="translate(-26.52 -29.5)"/><path class="cls-2" d="M156.54,137.78c.14.14.83-.14,1.55-.62s1.2-1,1.08-1.15-.81.13-1.54.62S156.41,137.64,156.54,137.78Z" transform="translate(-26.52 -29.5)"/><path class="cls-2" d="M147.37,146.16c.16.12,1.25-.78,2.44-2s2-2.31,1.88-2.44-1.24.76-2.44,2S147.21,146.05,147.37,146.16Z" transform="translate(-26.52 -29.5)"/><path class="cls-2" d="M140.51,156.24c.18.08,1-1,1.88-2.44s1.42-2.68,1.25-2.78-1,1-1.88,2.44S140.33,156.15,140.51,156.24Z" transform="translate(-26.52 -29.5)"/><path class="cls-2" d="M136.12,167.5c.19.05.76-1.18,1.28-2.76s.78-2.92.59-3-.76,1.16-1.28,2.76S135.92,167.45,136.12,167.5Z" transform="translate(-26.52 -29.5)"/><path class="cls-2" d="M134.36,179.51c.19,0,.47-1.32.62-3s.11-3.05-.08-3.09-.48,1.3-.63,3S134.16,179.49,134.36,179.51Z" transform="translate(-26.52 -29.5)"/><path class="cls-2" d="M135.41,191.79c.19,0,.15-1.4-.09-3.08s-.6-3.06-.8-3.06-.16,1.38.09,3.09S135.21,191.81,135.41,191.79Z" transform="translate(-26.52 -29.5)"/><path class="cls-2" d="M139.36,203.81c.18-.05-.19-1.42-.83-3.05a9,9,0,0,0-1.49-2.89c-.21,0,.17,1.4.81,3S139.17,203.86,139.36,203.81Z" transform="translate(-26.52 -29.5)"/><path class="cls-2" d="M145.26,215.32c.17-.07-.38-1.4-1.23-3s-1.69-2.8-1.87-2.73.37,1.39,1.23,3S145.09,215.39,145.26,215.32Z" transform="translate(-26.52 -29.5)"/><path class="cls-2" d="M151.7,226.63c.17-.07-.4-1.39-1.29-3s-1.74-2.77-1.92-2.7.4,1.39,1.29,2.95S151.52,226.69,151.7,226.63Z" transform="translate(-26.52 -29.5)"/><path class="cls-2" d="M157.35,238.22c.19-.05-.26-1.41-1-3s-1.47-2.89-1.65-2.83.27,1.41,1,3A8.73,8.73,0,0,0,157.35,238.22Z" transform="translate(-26.52 -29.5)"/><path class="cls-2" d="M160.67,250.34c.19,0,.19-1.4-.17-3.11s-.9-3-1.09-3,.05,1.4.39,3.08S160.47,250.34,160.67,250.34Z" transform="translate(-26.52 -29.5)"/><path class="cls-2" d="M160.06,262.49c.19.05.68-1.24.92-2.92s.14-3.07-.06-3.09-.4,1.31-.64,3S159.86,262.43,160.06,262.49Z" transform="translate(-26.52 -29.5)"/><path class="cls-2" d="M155.18,273.52c.16.1,1.1-.95,1.92-2.43s1.21-2.8,1-2.87-.87,1.1-1.68,2.55S155,273.41,155.18,273.52Z" transform="translate(-26.52 -29.5)"/><path class="cls-2" d="M146.42,282.21c.12.14,1.43-.52,2.78-1.63s2.2-2.22,2.05-2.34-1.23.76-2.56,1.85S146.3,282.06,146.42,282.21Z" transform="translate(-26.52 -29.5)"/><path class="cls-2" d="M134.48,287.18a7.72,7.72,0,0,0,3.35-.53c1.76-.54,3-1.25,2.94-1.41s-1.5.28-3.22.8S134.42,287,134.48,287.18Z" transform="translate(-26.52 -29.5)"/><path class="cls-2" d="M121,287.72c0,.17,1.52.52,3.44.6s3.43-.15,3.4-.32-1.56-.24-3.43-.32S121,287.54,121,287.72Z" transform="translate(-26.52 -29.5)"/><path class="cls-2" d="M107.75,283.75c-.09.15,1.23,1,3,1.71s3.36,1,3.4.84a13.25,13.25,0,0,0-3.16-1.42C109.27,284.18,107.84,283.59,107.75,283.75Z" transform="translate(-26.52 -29.5)"/><path class="cls-2" d="M97.09,275.38c-.15.09.68,1.35,2,2.66s2.69,2.16,2.81,2-1-1.16-2.31-2.44S97.25,275.28,97.09,275.38Z" transform="translate(-26.52 -29.5)"/><path class="cls-2" d="M90.91,264.06c-.18,0,0,1.43.74,3.08S93.21,270,93.38,270s-.39-1.38-1.06-3S91.11,264,90.91,264.06Z" transform="translate(-26.52 -29.5)"/><path class="cls-2" d="M90.17,251.85c-.19,0-.64,1.27-.74,3s.18,3.11.37,3.11.24-1.36.35-3S90.37,251.9,90.17,251.85Z" transform="translate(-26.52 -29.5)"/><path class="cls-2" d="M95.6,241.13c-.15-.12-1.23.82-2.2,2.23s-1.43,2.71-1.25,2.79.92-1.06,1.87-2.42S95.76,241.25,95.6,241.13Z" transform="translate(-26.52 -29.5)"/><path class="cls-2" d="M105.62,233.62c-.1-.16-1.49.36-3,1.29s-2.54,1.9-2.41,2,1.36-.59,2.85-1.5S105.73,233.78,105.62,233.62Z" transform="translate(-26.52 -29.5)"/><path class="cls-2" d="M117.94,229.23c-.06-.17-1.58,0-3.35.53s-3.08,1.15-3,1.31,1.52-.2,3.26-.7S118,229.4,117.94,229.23Z" transform="translate(-26.52 -29.5)"/><path class="cls-2" d="M131.26,227.46c0-.18-1.56-.19-3.43,0s-3.36.43-3.31.61a9.73,9.73,0,0,0,3.44,0C129.81,227.91,131.29,227.63,131.26,227.46Z" transform="translate(-26.52 -29.5)"/><path class="cls-2" d="M144.94,228.29a8.71,8.71,0,0,0-3.41-.79c-1.9-.22-3.44-.15-3.44,0s1.54.4,3.42.61S144.91,228.46,144.94,228.29Z" transform="translate(-26.52 -29.5)"/><path class="cls-2" d="M158.2,232.2c.08-.16-1.29-.93-3.11-1.59s-3.36-1-3.4-.78,1.4.72,3.19,1.37A12.36,12.36,0,0,0,158.2,232.2Z" transform="translate(-26.52 -29.5)"/><path class="cls-2" d="M169.82,239.48c.13-.12-.92-1.23-2.46-2.36a8.15,8.15,0,0,0-3.05-1.69c-.1.14,1.12,1.06,2.63,2.17S169.68,239.61,169.82,239.48Z" transform="translate(-26.52 -29.5)"/><path class="cls-2" d="M178.61,249.49c.17-.07-.49-1.38-1.61-2.85s-2.25-2.52-2.4-2.42.72,1.3,1.82,2.75S178.44,249.57,178.61,249.49Z" transform="translate(-26.52 -29.5)"/><path class="cls-2" d="M184.17,261.08c.19,0-.08-1.42-.74-3.07s-1.45-2.92-1.62-2.86.3,1.4.95,3S184,261.12,184.17,261.08Z" transform="translate(-26.52 -29.5)"/><path class="cls-2" d="M186.32,273.32c.19,0,.33-1.36.15-3.07s-.59-3.09-.78-3.08-.1,1.39.07,3.08S186.12,273.31,186.32,273.32Z" transform="translate(-26.52 -29.5)"/><path class="cls-2" d="M185,285.4c.19.05.69-1.23,1-2.89s.27-3.05.08-3.08-.49,1.29-.78,2.93S184.81,285.35,185,285.4Z" transform="translate(-26.52 -29.5)"/><path class="cls-2" d="M180.73,296.71c.18.09.88-1.09,1.57-2.62s1.09-2.84.9-2.91-.89,1.11-1.56,2.63S180.55,296.62,180.73,296.71Z" transform="translate(-26.52 -29.5)"/><path class="cls-2" d="M174,306.89c.17.12,1.11-.9,2.12-2.27s1.67-2.56,1.5-2.66-1.12.92-2.11,2.27S173.88,306.78,174,306.89Z" transform="translate(-26.52 -29.5)"/><path class="cls-2" d="M165.39,315.73c.14.14,1.3-.68,2.59-1.84s2.11-2.27,2-2.4-1.27.75-2.5,1.93S165.24,315.6,165.39,315.73Z" transform="translate(-26.52 -29.5)"/><path class="cls-2" d="M155.51,323.48c.13.14,1.36-.6,2.75-1.65s2.4-2,2.26-2.15-1.36.6-2.75,1.65S155.37,323.34,155.51,323.48Z" transform="translate(-26.52 -29.5)"/><path class="cls-2" d="M145.58,331.17c.14.14,1.35-.63,2.7-1.71s2.33-2.06,2.2-2.2-1.35.63-2.7,1.71S145.43,331,145.58,331.17Z" transform="translate(-26.52 -29.5)"/><path class="cls-2" d="M136.83,339.93c.17.11,1.22-.82,2.35-2.07s1.93-2.38,1.78-2.5-1.2.8-2.35,2.07S136.67,339.82,136.83,339.93Z" transform="translate(-26.52 -29.5)"/><path class="cls-2" d="M130.73,350.41c.19.07.83-1.13,1.55-2.63s1.28-2.73,1.1-2.82-1,1-1.75,2.53S130.55,350.34,130.73,350.41Z" transform="translate(-26.52 -29.5)"/><path class="cls-2" d="M127.9,362.16c.2,0,.47-1.3.75-2.94s.45-3,.25-3.05-.68,1.23-1,2.9S127.71,362.13,127.9,362.16Z" transform="translate(-26.52 -29.5)"/><path class="cls-2" d="M128.46,374.42c.2,0,.09-1.39-.11-3.08s-.4-3.06-.6-3.07-.31,1.37-.11,3.09S128.27,374.44,128.46,374.42Z" transform="translate(-26.52 -29.5)"/><path class="cls-3" d="M169.83,257.58H125.05a5.6,5.6,0,0,1-5.6-5.6V190a5.61,5.61,0,0,1,5.6-5.61h28.4l22,22.66V252A5.61,5.61,0,0,1,169.83,257.58Z" transform="translate(-26.52 -29.5)"/><path class="cls-4" d="M153.45,184.39v17.45a5.21,5.21,0,0,0,5.21,5.21h16.78Z" transform="translate(-26.52 -29.5)"/><path class="cls-5" d="M153.68,203.37a5.79,5.79,0,0,0,4.6,5.62,4.88,4.88,0,0,0,.55.12c2.19.39,16.61,3,16.61,2.63v-4.69H158.66S154.47,206.91,153.68,203.37Z" transform="translate(-26.52 -29.5)"/><path class="cls-5" d="M149.7,201.12c0,.23-4.64.41-10.36.41s-10.36-.18-10.36-.41,4.64-.4,10.36-.4S149.7,200.9,149.7,201.12Z" transform="translate(-26.52 -29.5)"/><path class="cls-5" d="M163.08,211c0,.22-7.64.4-17.05.4S129,211.21,129,211s7.63-.41,17.05-.41S163.08,210.76,163.08,211Z" transform="translate(-26.52 -29.5)"/><path class="cls-5" d="M166.15,219.22c0,.23-8.32.41-18.59.41s-18.58-.18-18.58-.41,8.32-.4,18.58-.4S166.15,219,166.15,219.22Z" transform="translate(-26.52 -29.5)"/><path class="cls-5" d="M166.15,227c0,.23-8.32.41-18.59.41S129,227.22,129,227s8.32-.4,18.58-.4S166.15,226.77,166.15,227Z" transform="translate(-26.52 -29.5)"/><path class="cls-5" d="M166.15,234.76c0,.23-8.32.41-18.59.41S129,235,129,234.76s8.32-.4,18.58-.4S166.15,234.54,166.15,234.76Z" transform="translate(-26.52 -29.5)"/><path class="cls-5" d="M166.15,242.53c0,.23-8.32.41-18.59.41s-18.58-.18-18.58-.41,8.32-.4,18.58-.4S166.15,242.31,166.15,242.53Z" transform="translate(-26.52 -29.5)"/><path class="cls-6" d="M163.08,364.45s.07.22.17.61.23,1,.4,1.73c.36,1.56.85,3.75,1.47,6.5,1.24,5.6,3,13.51,5.08,23l-.35-.25L200,389.51l-.26.42h0v-.05l0-.07,0-.13-.06-.28-.11-.54-.24-1.09c-.15-.73-.3-1.45-.46-2.16-.3-1.44-.61-2.86-.91-4.27q-.9-4.21-1.76-8.24c-1.13-5.35-2.2-10.4-3.19-15l.36.24L171.5,362.8,165.32,364l-1.65.32a3.77,3.77,0,0,1-.59.09,2.77,2.77,0,0,1,.52-.15l1.58-.37,6.07-1.39,21.93-4.86.28-.06.07.3c1,4.64,2.1,9.69,3.26,15,.57,2.68,1.17,5.43,1.77,8.24.3,1.41.61,2.83.92,4.26.15.72.31,1.44.46,2.17l.24,1.08.11.55.06.27,0,.14v.12h0l-.26.43L170,396.63l-.29.07-.06-.31-4.83-23.24c-.55-2.73-1-4.9-1.31-6.46l-.32-1.68A4.54,4.54,0,0,1,163.08,364.45Z" transform="translate(-26.52 -29.5)"/><path class="cls-6" d="M191.12,364c.51.27-2.23,7.32-6.11,15.74-.78,1.68-1.54,3.29-2.25,4.75l-.47,1-.87-.54c-5.67-3.47-9.61-6.23-9.39-6.64s2.89,1.55,8.69,4.78l.66.33c.65-1.5,1.32-2.9,2.09-4.58C187.36,370.34,190.61,363.68,191.12,364Z" transform="translate(-26.52 -29.5)"/><circle class="cls-7" cx="408.82" cy="35" r="4.01"/><rect class="cls-8" x="370.21" y="84.51" width="71.25" height="98.66" rx="6.36" transform="translate(-47.95 112.14) rotate(-19.3)"/><rect class="cls-5" x="375.51" y="89.73" width="61.25" height="89.93" transform="translate(-48.22 112.29) rotate(-19.3)"/><rect class="cls-9" x="374.19" y="89.38" width="61.25" height="88.21" transform="translate(-47.89 111.79) rotate(-19.3)"/><path class="cls-10" d="M448.3,165c-.25-.7-12-34.12-29.23-83.23l.1,0-57.8,20.25h0l.06-.12c10.9,31.27,21,60.15,29.14,83.26l-.1-.05L448.3,165,390.51,185.3l-.07,0,0-.06L361.25,102l0-.09.08,0h0l57.81-20.23.08,0,0,.08C436.38,130.85,448.06,164.29,448.3,165Z" transform="translate(-26.52 -29.5)"/><path class="cls-5" d="M427.79,172.17s11.91-10.56,14.14-21.87c0,0-2.61,5.31-10,6.33C431.89,156.63,431.63,168.5,427.79,172.17Z" transform="translate(-26.52 -29.5)"/><rect class="cls-11" x="377.07" y="120.85" width="7.49" height="7.49" rx="3.16" transform="translate(-46.3 103.35) rotate(-19.3)"/><path class="cls-12" d="M380.73,125.77h0a.17.17,0,0,1-.14,0l-1.39-.81a.17.17,0,0,1-.07-.24.18.18,0,0,1,.24-.06l1.23.71,1.47-3.15a.18.18,0,0,1,.32.15l-1.55,3.32A.18.18,0,0,1,380.73,125.77Z" transform="translate(-26.52 -29.5)"/><path class="cls-10" d="M420.65,107.65s-7.49,2.72-16.77,6-16.81,5.85-16.83,5.8,7.49-2.72,16.77-6S420.63,107.6,420.65,107.65Z" transform="translate(-26.52 -29.5)"/><path class="cls-10" d="M403,119.62a4.81,4.81,0,0,1-.55.23l-1.51.56-5,1.78-5,1.72-1.53.51a4.36,4.36,0,0,1-.57.16,4.81,4.81,0,0,1,.55-.23l1.5-.56,5-1.78c1.95-.68,3.73-1.29,5-1.72l1.53-.51A4.36,4.36,0,0,1,403,119.62Z" transform="translate(-26.52 -29.5)"/><path class="cls-10" d="M421.45,109.94s-7.49,2.72-16.77,6-16.81,5.85-16.83,5.8,7.49-2.72,16.77-6S421.43,109.89,421.45,109.94Z" transform="translate(-26.52 -29.5)"/><rect class="cls-11" x="381.41" y="133.26" width="7.49" height="7.49" rx="3.16" transform="translate(-50.16 105.49) rotate(-19.3)"/><path class="cls-12" d="M385.07,138.18h0a.18.18,0,0,1-.14,0l-1.39-.81a.18.18,0,0,1-.06-.24.16.16,0,0,1,.23-.06l1.23.71,1.48-3.15a.18.18,0,0,1,.23-.08.17.17,0,0,1,.08.23l-1.55,3.32A.19.19,0,0,1,385.07,138.18Z" transform="translate(-26.52 -29.5)"/><path class="cls-10" d="M425,120.05s-7.49,2.72-16.77,6-16.81,5.84-16.83,5.79,7.49-2.71,16.77-6S425,120,425,120.05Z" transform="translate(-26.52 -29.5)"/><path class="cls-10" d="M407.36,132a4.2,4.2,0,0,1-.54.22l-1.51.56c-1.28.47-3,1.1-5,1.78l-5,1.73-1.53.5a3,3,0,0,1-.57.16,4.81,4.81,0,0,1,.55-.23l1.51-.55c1.27-.47,3-1.1,5-1.78s3.73-1.3,5-1.73l1.52-.5A2.39,2.39,0,0,1,407.36,132Z" transform="translate(-26.52 -29.5)"/><path class="cls-10" d="M425.79,122.34s-7.49,2.72-16.76,6-16.82,5.84-16.83,5.8,7.49-2.72,16.77-6S425.78,122.29,425.79,122.34Z" transform="translate(-26.52 -29.5)"/><rect class="cls-11" x="385.75" y="145.66" width="7.49" height="7.49" rx="3.16" transform="translate(-54.01 107.62) rotate(-19.3)"/><path class="cls-12" d="M389.41,150.58h0a.17.17,0,0,1-.14,0l-1.4-.81a.18.18,0,0,1-.06-.24.18.18,0,0,1,.24-.06l1.23.71,1.47-3.15a.17.17,0,0,1,.23-.09.19.19,0,0,1,.09.24l-1.56,3.32A.18.18,0,0,1,389.41,150.58Z" transform="translate(-26.52 -29.5)"/><path class="cls-10" d="M429.33,132.45c0,.05-7.49,2.72-16.76,6s-16.81,5.85-16.83,5.8,7.49-2.72,16.77-6S429.32,132.41,429.33,132.45Z" transform="translate(-26.52 -29.5)"/><path class="cls-10" d="M411.7,144.43a4.08,4.08,0,0,1-.54.23l-1.51.56c-1.27.46-3,1.09-5,1.77s-3.73,1.3-5,1.73l-1.52.51a5.7,5.7,0,0,1-.57.16,2.88,2.88,0,0,1,.54-.23l1.51-.56,5-1.78c1.95-.68,3.72-1.29,5-1.72l1.53-.51A5.23,5.23,0,0,1,411.7,144.43Z" transform="translate(-26.52 -29.5)"/><path class="cls-10" d="M430.14,134.74s-7.49,2.72-16.77,6-16.81,5.85-16.83,5.8,7.49-2.72,16.77-6S430.12,134.7,430.14,134.74Z" transform="translate(-26.52 -29.5)"/><rect class="cls-11" x="390.1" y="158.07" width="7.49" height="7.49" rx="3.16" transform="translate(-57.87 109.76) rotate(-19.3)"/><path class="cls-12" d="M393.76,163h0a.22.22,0,0,1-.14,0l-1.39-.81a.17.17,0,0,1-.07-.24.18.18,0,0,1,.24-.06l1.23.71,1.47-3.15a.19.19,0,0,1,.24-.08.18.18,0,0,1,.08.23l-1.55,3.32A.15.15,0,0,1,393.76,163Z" transform="translate(-26.52 -29.5)"/><path class="cls-10" d="M433.68,144.86s-7.49,2.72-16.77,6-16.81,5.84-16.83,5.79,7.49-2.72,16.77-6S433.66,144.81,433.68,144.86Z" transform="translate(-26.52 -29.5)"/><path class="cls-10" d="M416.05,156.83a2.47,2.47,0,0,1-.55.23l-1.5.56c-1.28.47-3.05,1.09-5,1.78l-5,1.73-1.53.5a3,3,0,0,1-.57.16,4.81,4.81,0,0,1,.55-.23l1.5-.55c1.28-.47,3.05-1.1,5-1.78s3.73-1.3,5-1.73l1.53-.5A3.75,3.75,0,0,1,416.05,156.83Z" transform="translate(-26.52 -29.5)"/><path class="cls-10" d="M434.48,147.15s-7.49,2.72-16.77,6-16.81,5.84-16.83,5.79,7.49-2.72,16.77-6S434.46,147.1,434.48,147.15Z" transform="translate(-26.52 -29.5)"/><path class="cls-13" d="M367.88,93.87l1.53,4.36a4.84,4.84,0,0,0,6.18,3l32-11.19a4.85,4.85,0,0,0,3-6.19L409,79.47Z" transform="translate(-26.52 -29.5)"/><path class="cls-13" d="M388.88,88a4.55,4.55,0,1,1,2.79-5.79A4.55,4.55,0,0,1,388.88,88ZM386.45,81A2.81,2.81,0,1,0,390,82.74,2.81,2.81,0,0,0,386.45,81Z" transform="translate(-26.52 -29.5)"/><path class="cls-10" d="M414.43,99.27c0,.08-8.4,3.11-18.82,6.76s-18.91,6.54-18.94,6.46,8.4-3.11,18.83-6.76S414.41,99.18,414.43,99.27Z" transform="translate(-26.52 -29.5)"/><path class="cls-10" d="M403.64,100.82c0,.08-3.69,1.46-8.29,3.07s-8.37,2.85-8.4,2.77,3.68-1.46,8.29-3.07S403.61,100.73,403.64,100.82Z" transform="translate(-26.52 -29.5)"/><polygon class="cls-13" points="90.88 124.68 95.53 129.43 102.08 128.29 99.01 134.18 102.12 140.06 95.56 138.95 90.94 143.73 89.96 137.15 83.99 134.23 89.94 131.27 90.88 124.68"/><polygon class="cls-13" points="139.11 124.68 134.46 129.43 127.91 128.29 130.98 134.18 127.87 140.06 134.43 138.95 139.05 143.73 140.03 137.15 146 134.23 140.05 131.27 139.11 124.68"/><polygon class="cls-13" points="115.35 116.07 119.22 123.63 127.65 124.73 121.65 130.75 123.21 139.1 115.63 135.26 108.17 139.32 109.48 130.93 103.31 125.09 111.7 123.74 115.35 116.07"/><path class="cls-2" d="M392.67,355a7.16,7.16,0,0,1-.1-2.79,7.53,7.53,0,0,1,.44-2.79,7,7,0,0,1,.11,2.79A7.42,7.42,0,0,1,392.67,355Z" transform="translate(-26.52 -29.5)"/><path class="cls-2" d="M391.47,366.09a7.48,7.48,0,0,1,.08-2.81,7.58,7.58,0,0,1,.62-2.76,7.28,7.28,0,0,1-.07,2.8A7.48,7.48,0,0,1,391.47,366.09Z" transform="translate(-26.52 -29.5)"/><path class="cls-2" d="M389.41,377.14a7.46,7.46,0,0,1,.3-2.8,7.63,7.63,0,0,1,.85-2.71,7.36,7.36,0,0,1-.31,2.8A7.79,7.79,0,0,1,389.41,377.14Z" transform="translate(-26.52 -29.5)"/><path class="cls-2" d="M386.25,388a7.23,7.23,0,0,1,.6-2.77A7.58,7.58,0,0,1,388,382.6a15.07,15.07,0,0,1-1.73,5.38Z" transform="translate(-26.52 -29.5)"/><path class="cls-2" d="M381.78,398.37a7.75,7.75,0,0,1,1-2.67,7.59,7.59,0,0,1,1.45-2.45,7.54,7.54,0,0,1-1,2.68A7.2,7.2,0,0,1,381.78,398.37Z" transform="translate(-26.52 -29.5)"/><path class="cls-2" d="M375.89,408a14.77,14.77,0,0,1,3.13-4.71,7.49,7.49,0,0,1-1.34,2.51C376.81,407.13,376,408.11,375.89,408Z" transform="translate(-26.52 -29.5)"/><path class="cls-2" d="M368.56,416.56a7.38,7.38,0,0,1,1.73-2.25c1-1.13,2-2,2.11-1.86a7.5,7.5,0,0,1-1.73,2.25C369.6,415.84,368.66,416.67,368.56,416.56Z" transform="translate(-26.52 -29.5)"/><path class="cls-2" d="M360,423.66c-.08-.14.85-1,2.07-1.91a7.09,7.09,0,0,1,2.37-1.45c.09.12-.84,1-2.07,1.91A7.09,7.09,0,0,1,360,423.66Z" transform="translate(-26.52 -29.5)"/><path class="cls-2" d="M350.38,429.1a7.36,7.36,0,0,1,2.34-1.51,6.77,6.77,0,0,1,2.55-1,7,7,0,0,1-2.34,1.51A6.68,6.68,0,0,1,350.38,429.1Z" transform="translate(-26.52 -29.5)"/><path class="cls-2" d="M340.11,432.58a6.71,6.71,0,0,1,2.54-1,6.52,6.52,0,0,1,2.66-.46,6.82,6.82,0,0,1-2.55,1A6.41,6.41,0,0,1,340.11,432.58Z" transform="translate(-26.52 -29.5)"/><path class="cls-2" d="M329.51,433.63c0-.08.31-.15.79-.2l1.87-.13a6.13,6.13,0,0,1,2.64.15,6.46,6.46,0,0,1-2.66.43,8,8,0,0,1-1.88,0C329.79,433.78,329.5,433.71,329.51,433.63Z" transform="translate(-26.52 -29.5)"/><path class="cls-2" d="M319.19,431.78a17,17,0,0,1,5.07,1.29,5.31,5.31,0,0,1-2.64-.27A5.17,5.17,0,0,1,319.19,431.78Z" transform="translate(-26.52 -29.5)"/><path class="cls-2" d="M309.93,427c.09-.14,1.1.45,2.32,1.2s2.2,1.38,2.12,1.53-1.18-.26-2.42-1S309.83,427.14,309.93,427Z" transform="translate(-26.52 -29.5)"/><path class="cls-2" d="M302.45,419.63c.13-.1.93.77,1.88,1.86s1.7,2,1.6,2.12-1.05-.6-2-1.71A5.6,5.6,0,0,1,302.45,419.63Z" transform="translate(-26.52 -29.5)"/><path class="cls-2" d="M298.39,412.75c.14-.08.52.4.85,1.05s.48,1.27.35,1.35-.52-.38-.85-1S298.25,412.82,298.39,412.75Z" transform="translate(-26.52 -29.5)"/><path class="cls-2" d="M291.67,407.44a7.31,7.31,0,0,1,2.58,1.13c1.35.76,2.37,1.47,2.28,1.6A7.52,7.52,0,0,1,294,409,7.13,7.13,0,0,1,291.67,407.44Z" transform="translate(-26.52 -29.5)"/><path class="cls-2" d="M281.31,403.13a11.41,11.41,0,0,1,5.3,1.91,8.57,8.57,0,0,1-2.72-.78A8.93,8.93,0,0,1,281.31,403.13Z" transform="translate(-26.52 -29.5)"/><path class="cls-2" d="M270.11,402.07a10.56,10.56,0,0,1,5.65,0,9.54,9.54,0,0,1-2.82.14A9,9,0,0,1,270.11,402.07Z" transform="translate(-26.52 -29.5)"/><path class="cls-2" d="M259.09,404.24a14.63,14.63,0,0,1,5.44-1.38,7.45,7.45,0,0,1-2.64.95A7.7,7.7,0,0,1,259.09,404.24Z" transform="translate(-26.52 -29.5)"/><path class="cls-2" d="M248.6,408.05a7.1,7.1,0,0,1,2.48-1.27,7.41,7.41,0,0,1,2.71-.76,7.14,7.14,0,0,1-2.48,1.27A7.31,7.31,0,0,1,248.6,408.05Z" transform="translate(-26.52 -29.5)"/><path class="cls-2" d="M238.32,412.32a7,7,0,0,1,2.45-1.32,7.44,7.44,0,0,1,2.69-.81A7,7,0,0,1,241,411.5,7.63,7.63,0,0,1,238.32,412.32Z" transform="translate(-26.52 -29.5)"/><path class="cls-2" d="M227.79,416a7.38,7.38,0,0,1,2.55-1.14,7.61,7.61,0,0,1,2.76-.62,7.26,7.26,0,0,1-2.56,1.13A7.51,7.51,0,0,1,227.79,416Z" transform="translate(-26.52 -29.5)"/><path class="cls-2" d="M217,419.06a7.39,7.39,0,0,1,2.63-1,7.75,7.75,0,0,1,2.8-.45,7.19,7.19,0,0,1-2.63,1A7.75,7.75,0,0,1,217,419.06Z" transform="translate(-26.52 -29.5)"/><path class="cls-2" d="M206,421.25a7.37,7.37,0,0,1,2.72-.76,8,8,0,0,1,2.83-.22,7.21,7.21,0,0,1-2.72.76A7.51,7.51,0,0,1,206,421.25Z" transform="translate(-26.52 -29.5)"/><path class="cls-2" d="M194.74,422.35a7.54,7.54,0,0,1,2.79-.47,7.65,7.65,0,0,1,2.84.07,7.42,7.42,0,0,1-2.79.47A7.6,7.6,0,0,1,194.74,422.35Z" transform="translate(-26.52 -29.5)"/><path class="cls-2" d="M183.43,422.07a14.68,14.68,0,0,1,5.65.33,7.52,7.52,0,0,1-2.84.11A7.66,7.66,0,0,1,183.43,422.07Z" transform="translate(-26.52 -29.5)"/><path class="cls-2" d="M172.28,420.19a14.87,14.87,0,0,1,5.54,1.15A7.5,7.5,0,0,1,175,421,7.6,7.6,0,0,1,172.28,420.19Z" transform="translate(-26.52 -29.5)"/><path class="cls-2" d="M161.63,416.56a7.5,7.5,0,0,1,2.73.77,7.15,7.15,0,0,1,2.51,1.27,7.75,7.75,0,0,1-2.73-.77A7.52,7.52,0,0,1,161.63,416.56Z" transform="translate(-26.52 -29.5)"/><path class="cls-2" d="M151.84,411.21a7.47,7.47,0,0,1,2.55,1.21c1.31.79,2.3,1.54,2.22,1.67a7.28,7.28,0,0,1-2.54-1.21C152.74,412.08,151.75,411.34,151.84,411.21Z" transform="translate(-26.52 -29.5)"/><path class="cls-2" d="M143.23,404.35A7,7,0,0,1,145.5,406c1.14,1,2,1.89,1.87,2a7.21,7.21,0,0,1-2.27-1.61C144,405.35,143.11,404.45,143.23,404.35Z" transform="translate(-26.52 -29.5)"/><path class="cls-2" d="M136.17,396.1c.14-.07,1,.81,1.9,2a6.73,6.73,0,0,1,1.41,2.3c-.13.09-1-.8-1.89-2S136,396.18,136.17,396.1Z" transform="translate(-26.52 -29.5)"/><path class="cls-2" d="M131.26,386.65c.08,0,.26.24.48.67s.49,1,.81,1.68a6.09,6.09,0,0,1,.85,2.51A6.5,6.5,0,0,1,132,389.2a8.5,8.5,0,0,1-.67-1.76C131.22,387,131.18,386.68,131.26,386.65Z" transform="translate(-26.52 -29.5)"/><path class="cls-2" d="M129.14,376.39a7.1,7.1,0,0,1,.54,2.57,7.19,7.19,0,0,1,.15,2.62,5.22,5.22,0,0,1-.73-2.56A5.11,5.11,0,0,1,129.14,376.39Z" transform="translate(-26.52 -29.5)"/><rect class="cls-14" x="339.07" y="272.9" width="85.38" height="64.9"/><rect class="cls-15" x="354.88" y="302.86" width="7.96" height="25.7"/><rect class="cls-15" x="369.52" y="292.29" width="7.96" height="36.28"/><rect class="cls-15" x="385.1" y="287.35" width="7.96" height="41.22"/><rect class="cls-15" x="400.69" y="282.13" width="7.96" height="46.43"/><rect class="cls-14" x="273.79" y="323.98" width="10.33" height="69.62" transform="translate(611.22 50.33) rotate(90)"/><rect class="cls-14" x="247.69" y="295.23" width="14.14" height="97.59" transform="translate(118.72 -99.32) rotate(21.7)"/><rect class="cls-14" x="295.52" y="295.08" width="14.14" height="97.59" transform="translate(684.36 521.99) rotate(158.3)"/><circle class="cls-7" cx="110.29" cy="280.1" r="4.01"/><circle class="cls-7" cx="375.37" cy="370.89" r="4.01"/><circle class="cls-7" cx="440.94" cy="276.08" r="4.01"/><circle class="cls-7" cx="48.7" cy="159.22" r="4.01"/><circle class="cls-7" cx="243.65" cy="4.26" r="4.01"/><circle class="cls-7" cx="178.86" cy="158.63" r="3.43"/><polygon class="cls-8" points="69.9 356.06 64.2 361.86 56.19 360.46 59.95 367.68 56.14 374.87 64.17 373.52 69.83 379.36 71.02 371.31 78.33 367.74 71.05 364.11 69.9 356.06"/><polygon class="cls-8" points="145.74 50.89 142.76 53.92 138.58 53.19 140.55 56.95 138.56 60.7 142.75 60 145.7 63.05 146.32 58.85 150.13 56.98 146.33 55.09 145.74 50.89"/><polygon class="cls-8" points="434.29 197.5 429.97 201.9 423.9 200.84 426.75 206.3 423.87 211.75 429.94 210.72 434.23 215.15 435.14 209.06 440.67 206.34 435.15 203.6 434.29 197.5"/><circle class="cls-15" cx="279.77" cy="258.2" r="76.88" transform="translate(-127.15 243.95) rotate(-45)"/><path class="cls-16" d="M279.77,327.1a68.91,68.91,0,1,1,68.91-68.9A69,69,0,0,1,279.77,327.1Zm0-134.52a65.62,65.62,0,1,0,65.62,65.62A65.69,65.69,0,0,0,279.77,192.58Z" transform="translate(-26.52 -29.5)"/><path class="cls-14" d="M279.77,301.49a43.29,43.29,0,1,1,43.29-43.29A43.34,43.34,0,0,1,279.77,301.49Zm0-80a36.72,36.72,0,1,0,36.72,36.72A36.76,36.76,0,0,0,279.77,221.48Z" transform="translate(-26.52 -29.5)"/><path class="cls-14" d="M279.77,277a18.79,18.79,0,1,1,18.79-18.78A18.8,18.8,0,0,1,279.77,277Zm0-31A12.21,12.21,0,1,0,292,258.2,12.22,12.22,0,0,0,279.77,246Z" transform="translate(-26.52 -29.5)"/><rect class="cls-17" x="321.52" y="169.3" width="2.66" height="100.77" transform="translate(369.29 573.81) rotate(-135)"/><path class="cls-18" d="M359.38,185l9.59,1-13.16,13.16a20.36,20.36,0,0,1-16.4,5.86h0Z" transform="translate(-26.52 -29.5)"/><path class="cls-18" d="M357.5,183.15l-.95-9.58-13.16,13.16a20.35,20.35,0,0,0-5.86,16.39h0Z" transform="translate(-26.52 -29.5)"/></svg>