<svg xmlns="http://www.w3.org/2000/svg" viewBox="0 0 465.71 477.94"><defs><style>.cls-1{fill:#f9fce0;}.cls-2{fill:#263238;}.cls-3,.cls-6,.cls-7{fill:#f3d996;}.cls-4{opacity:0.3;}.cls-5{fill:#f8ab2e;}.cls-5,.cls-6,.cls-7,.cls-9{stroke:#263238;stroke-miterlimit:10;}.cls-5,.cls-6{stroke-width:0.75px;}.cls-7{stroke-width:0.59px;}.cls-8{opacity:0.2;}.cls-9{fill:#fff;opacity:0.7;}.cls-10{fill:#f93;}.cls-11{fill:none;}</style></defs><title>9086042</title><g id="Background_Complete" data-name="Background Complete"><path class="cls-1" d="M154.54,20.77C124.61,33.68,102,55.34,81,80.27a328.55,328.55,0,0,0-46.16,73.41c-12.21,26.42-19.09,58.56-1.07,84C45,253.5,61.5,260.65,76.9,271.16c2.83,1.94,6.82,3.92,6.79,7.78,0,5.87-10.8,12.12-14.49,15.47-9.12,8.26-17.94,16.9-25.53,26.61-11.11,14.22-19.59,31-21.17,49-1.73,19.57,4.93,39.33,16.17,55.45C55,449,80.91,467.24,108,476.08c14.48,4.73,29.84,6.15,45,5.67a230.42,230.42,0,0,0,45.65-6.17c23.13-5.5,47.23-14.26,71.24-9,25.74,5.6,50.88,12.23,77,16.18,33.52,5.07,81.59,11.53,109-13.13,19.67-17.71,28.87-46.32,31.33-71.93,1.46-15.18,1.17-32.28-3.89-46.85-6.86-19.73-19.36-37.89-29.19-56.22-6.08-11.31-11.44-23.34-13.59-36.09-2.38-14.05,1.84-23.2,8.69-35.31,24.48-43.24,44.48-105.51,18.5-152.28-8.16-14.69-23.95-21.54-40.5-22.1-14.5-.49-28.77,3.59-42.37,8.65-25.58,9.49-66,33.72-93,17.54-15.58-9.34-21.53-28.7-32.49-42.29-11.79-14.63-30-22.06-48.44-23.07C192,8.62,171.83,13.3,154.54,20.77Z" transform="translate(-22.23 -9.5)"/><g id="Paper_Plane" data-name="Paper Plane"><path class="cls-2" d="M127.45,211c-.13,0-.41-.45-.62-1.11s-.27-1.23-.13-1.27.41.45.62,1.11S127.59,210.94,127.45,211Z" transform="translate(-22.23 -9.5)"/><path class="cls-2" d="M130.47,220.51a6.29,6.29,0,0,1-1-2.3,6.15,6.15,0,0,1-.51-2.46,6.51,6.51,0,0,1,1,2.3A6.15,6.15,0,0,1,130.47,220.51Z" transform="translate(-22.23 -9.5)"/><path class="cls-2" d="M133.67,230a6.09,6.09,0,0,1-1.06-2.28,5.94,5.94,0,0,1-.57-2.45,6.5,6.5,0,0,1,1.06,2.28A6.35,6.35,0,0,1,133.67,230Z" transform="translate(-22.23 -9.5)"/><path class="cls-2" d="M137.26,239.33a12.28,12.28,0,0,1-1.86-4.65,6.36,6.36,0,0,1,1.17,2.23A6.16,6.16,0,0,1,137.26,239.33Z" transform="translate(-22.23 -9.5)"/><path class="cls-2" d="M141.56,248.36a6.24,6.24,0,0,1-1.36-2.11,6.31,6.31,0,0,1-.91-2.35,6.14,6.14,0,0,1,1.37,2.11A6.27,6.27,0,0,1,141.56,248.36Z" transform="translate(-22.23 -9.5)"/><path class="cls-2" d="M147.19,256.61c-.11.09-.88-.73-1.72-1.83a6.26,6.26,0,0,1-1.31-2.15c.12-.08.89.74,1.72,1.83A6.46,6.46,0,0,1,147.19,256.61Z" transform="translate(-22.23 -9.5)"/><path class="cls-2" d="M154.06,263.87c-.1.1-1-.6-2-1.58s-1.69-1.85-1.59-1.94,1,.6,2,1.57S154.16,263.76,154.06,263.87Z" transform="translate(-22.23 -9.5)"/><path class="cls-2" d="M161.75,270.26a6.28,6.28,0,0,1-2.13-1.34c-1.09-.85-1.9-1.63-1.81-1.74a6.34,6.34,0,0,1,2.13,1.33C161,269.36,161.84,270.14,161.75,270.26Z" transform="translate(-22.23 -9.5)"/><path class="cls-2" d="M170.33,275.37a5.36,5.36,0,0,1-2.37-.87,5.51,5.51,0,0,1-2.05-1.47,7.38,7.38,0,0,1,2.3,1A7.5,7.5,0,0,1,170.33,275.37Z" transform="translate(-22.23 -9.5)"/><path class="cls-2" d="M180.05,277.49a5.21,5.21,0,0,1-2.53.07,5,5,0,0,1-2.43-.66,8,8,0,0,1,2.49.15A7.76,7.76,0,0,1,180.05,277.49Z" transform="translate(-22.23 -9.5)"/><path class="cls-2" d="M190,276.53a12.23,12.23,0,0,1-4.94.77,11.79,11.79,0,0,1,4.94-.77Z" transform="translate(-22.23 -9.5)"/><path class="cls-2" d="M199.64,274a6.07,6.07,0,0,1-2.32,1,6.15,6.15,0,0,1-2.48.45,6.24,6.24,0,0,1,2.33-.95A6.43,6.43,0,0,1,199.64,274Z" transform="translate(-22.23 -9.5)"/><path class="cls-2" d="M209.18,270.92a11.91,11.91,0,0,1-4.77,1.51,6.2,6.2,0,0,1,2.31-1A6.37,6.37,0,0,1,209.18,270.92Z" transform="translate(-22.23 -9.5)"/><path class="cls-2" d="M218.87,268.45a12.35,12.35,0,0,1-4.87,1.14,6.2,6.2,0,0,1,2.37-.83A6.08,6.08,0,0,1,218.87,268.45Z" transform="translate(-22.23 -9.5)"/><path class="cls-2" d="M228.7,266.64a6.28,6.28,0,0,1-2.42.66,6,6,0,0,1-2.51.15,6.27,6.27,0,0,1,2.42-.66A6.16,6.16,0,0,1,228.7,266.64Z" transform="translate(-22.23 -9.5)"/><path class="cls-2" d="M238.65,265.66a6.39,6.39,0,0,1-2.48.44,6.21,6.21,0,0,1-2.51-.07,6.39,6.39,0,0,1,2.48-.45A6.05,6.05,0,0,1,238.65,265.66Z" transform="translate(-22.23 -9.5)"/><path class="cls-2" d="M248.64,265.73a6.3,6.3,0,0,1-2.5.17,6,6,0,0,1-2.49-.36,6.35,6.35,0,0,1,2.5-.16A6.25,6.25,0,0,1,248.64,265.73Z" transform="translate(-22.23 -9.5)"/><path class="cls-2" d="M258.54,267.11a11.71,11.71,0,0,1-4.92-.87,6.25,6.25,0,0,1,2.5.18A6.18,6.18,0,0,1,258.54,267.11Z" transform="translate(-22.23 -9.5)"/><path class="cls-2" d="M268.1,270a6.2,6.2,0,0,1-2.44-.58,6.5,6.5,0,0,1-2.28-1.06A11.88,11.88,0,0,1,268.1,270Z" transform="translate(-22.23 -9.5)"/><path class="cls-2" d="M277,274.51a6,6,0,0,1-2.3-1c-1.2-.67-2.12-1.32-2.05-1.45a6.2,6.2,0,0,1,2.3,1C276.18,273.74,277.1,274.39,277,274.51Z" transform="translate(-22.23 -9.5)"/><path class="cls-2" d="M285,280.56a6.42,6.42,0,0,1-2.08-1.4c-1.06-.88-1.85-1.69-1.76-1.8s1,.51,2.09,1.4S285.08,280.45,285,280.56Z" transform="translate(-22.23 -9.5)"/><path class="cls-2" d="M291.73,287.93c-.11.09-.92-.7-1.8-1.75s-1.51-2-1.4-2.09.91.69,1.8,1.75S291.85,287.85,291.73,287.93Z" transform="translate(-22.23 -9.5)"/><path class="cls-2" d="M296.94,296.46a12.42,12.42,0,0,1-2.39-4.4c.13-.07.76.85,1.43,2.07A6.25,6.25,0,0,1,296.94,296.46Z" transform="translate(-22.23 -9.5)"/><path class="cls-2" d="M300.13,305.92c-.07,0-.19-.25-.34-.68l-.51-1.68a6.51,6.51,0,0,1-.45-2.47,6.05,6.05,0,0,1,.95,2.33,8.54,8.54,0,0,1,.37,1.74C300.21,305.61,300.2,305.9,300.13,305.92Z" transform="translate(-22.23 -9.5)"/><path class="cls-2" d="M300.77,315.87a7.46,7.46,0,0,1-.16-2.5,7.16,7.16,0,0,1,.18-2.5,9.1,9.1,0,0,1,0,5Z" transform="translate(-22.23 -9.5)"/><path class="cls-2" d="M298.67,325.62a7.68,7.68,0,0,1,.53-2.45,7.8,7.8,0,0,1,.86-2.35,5.34,5.34,0,0,1-.36,2.5A5.22,5.22,0,0,1,298.67,325.62Z" transform="translate(-22.23 -9.5)"/><path class="cls-2" d="M294,334.4a7.53,7.53,0,0,1,1.19-2.2,7.87,7.87,0,0,1,1.48-2,5.18,5.18,0,0,1-1,2.3C294.84,333.65,294.07,334.48,294,334.4Z" transform="translate(-22.23 -9.5)"/><path class="cls-2" d="M288.91,339.93c-.09-.11.23-.58.73-1.05s1-.78,1.08-.68-.22.57-.72,1.05S289,340,288.91,339.93Z" transform="translate(-22.23 -9.5)"/><polygon class="cls-3" points="71.74 212.94 49.18 144.6 119.71 166.46 103.24 182.24 102.54 196.56 88.93 196.52 71.74 212.94"/><g class="cls-4"><polygon points="103.24 182.24 49.18 144.6 88.93 196.52 102.54 196.56 103.24 182.24"/></g><path class="cls-2" d="M111.16,206s-.08-.08-.22-.25l-.61-.77L108,202l-8.49-11L71.61,154.49a.19.19,0,0,1,0-.25.2.2,0,0,1,.22,0l.19.14,37.81,26.37,11.44,8,3.1,2.2.8.58a2.34,2.34,0,0,1,.26.21l-.28-.18-.82-.55-3.14-2.14L109.72,181,71.84,154.66l-.19-.13.25-.26,27.82,36.56c3.54,4.68,6.41,8.46,8.4,11.1l2.26,3,.59.8Z" transform="translate(-22.23 -9.5)"/><path class="cls-2" d="M72,155.41a4.07,4.07,0,0,1,.57.48l1.55,1.44c1.38,1.3,3.3,3.12,5.65,5.36L98.3,180.53l18.4,18,5.54,5.48,1.49,1.51a5,5,0,0,1,.49.55,4.35,4.35,0,0,1-.57-.47l-1.55-1.44-5.65-5.37L97.94,180.91l-18.4-18L74,157.47,72.51,156A5,5,0,0,1,72,155.41Z" transform="translate(-22.23 -9.5)"/><path class="cls-2" d="M94,222.45l.3-.31.87-.85L98.5,218,111,205.91l0,0h13.68l-.2.19c.21-4.37.43-9.2.67-14.31v-.09l.06-.06,16.46-15.81.09.42-34-10.54L71.33,154.34l.31-.31,16.07,49.11,4.61,14.17c.53,1.65.94,2.92,1.23,3.8.13.42.24.75.31,1l.11.35-.12-.31c-.07-.23-.18-.54-.32-.95q-.44-1.31-1.26-3.72L87.56,203.4c-4-12.12-9.73-29.22-16.39-49.22l-.15-.45.46.14L108,165.17l34,10.56.4.12-.3.29-16.49,15.77.06-.15c-.25,5.11-.5,9.94-.72,14.31v.18h-.18l-13.61-.06.11-.05L98.5,218.2l-3.38,3.18-.86.81Z" transform="translate(-22.23 -9.5)"/></g><path class="cls-5" d="M353.55,303a29.89,29.89,0,0,1,7.26-3.16l1.5-7.19,12.14-.21,1.75,7.13a29.9,29.9,0,0,1,7.37,2.9l6.14-4,8.73,8.43-3.8,6.28a29.89,29.89,0,0,1,3.16,7.26l7.18,1.5.22,12.14-7.13,1.75a30.14,30.14,0,0,1-2.9,7.37l4,6.14-8.44,8.74-6.27-3.81a29.89,29.89,0,0,1-7.26,3.16l-1.5,7.18-12.14.22-1.75-7.13a30,30,0,0,1-7.37-2.9l-6.14,4-8.74-8.44,3.81-6.27a29.89,29.89,0,0,1-3.16-7.26l-7.19-1.5-.21-12.14,7.13-1.75a29.6,29.6,0,0,1,2.9-7.37l-4-6.14,8.43-8.74,6.28,3.81ZM360,319.2a13,13,0,1,0,18.43-.33A13,13,0,0,0,360,319.2Z" transform="translate(-22.23 -9.5)"/><path class="cls-6" d="M356.46,92.93a20.31,20.31,0,0,1,5-2.16l1-4.93,8.33-.15,1.2,4.89a20.34,20.34,0,0,1,5.05,2l4.21-2.76,6,5.78-2.61,4.31a20.31,20.31,0,0,1,2.16,5l4.93,1,.15,8.33L387,115.42a20.26,20.26,0,0,1-2,5.06l2.76,4.2-5.79,6-4.3-2.6a20.31,20.31,0,0,1-5,2.16l-1,4.93-8.33.14-1.2-4.89a20.71,20.71,0,0,1-5.05-2l-4.2,2.76-6-5.79,2.6-4.3a20.31,20.31,0,0,1-2.16-5l-4.93-1-.14-8.33,4.88-1.2a20.74,20.74,0,0,1,2-5l-2.76-4.21,5.79-6,4.3,2.61ZM360.9,104a8.93,8.93,0,1,0,12.63-.22A8.93,8.93,0,0,0,360.9,104Z" transform="translate(-22.23 -9.5)"/><path class="cls-6" d="M394.84,411.8a11.58,11.58,0,0,1,2.87-1.25l.59-2.84,4.79-.08.69,2.81a11.54,11.54,0,0,1,2.91,1.15l2.43-1.59,3.45,3.33-1.5,2.48a11.54,11.54,0,0,1,1.24,2.87l2.84.59.09,4.79-2.82.69a11.89,11.89,0,0,1-1.14,2.91l1.58,2.43-3.33,3.45-2.48-1.5a11.48,11.48,0,0,1-2.86,1.24l-.6,2.84-4.79.09-.69-2.82a11.89,11.89,0,0,1-2.91-1.14l-2.43,1.58-3.45-3.33,1.5-2.48a11.86,11.86,0,0,1-1.24-2.86l-2.84-.59-.08-4.8,2.81-.69a11.54,11.54,0,0,1,1.15-2.91L389,413.74l3.33-3.45,2.48,1.51Zm2.56,6.39a5.14,5.14,0,1,0,7.27-.13A5.14,5.14,0,0,0,397.4,418.19Z" transform="translate(-22.23 -9.5)"/><path class="cls-6" d="M424.8,161.36a11.58,11.58,0,0,1,2.87-1.25l.59-2.84,4.79-.08.69,2.81a11.54,11.54,0,0,1,2.91,1.15l2.43-1.59,3.45,3.33-1.5,2.48a11.39,11.39,0,0,1,1.24,2.87l2.84.59.09,4.79-2.82.69a11.89,11.89,0,0,1-1.14,2.91l1.58,2.43-3.33,3.45L437,181.6a11.86,11.86,0,0,1-2.86,1.24l-.6,2.84-4.79.09-.69-2.82a11.54,11.54,0,0,1-2.91-1.15l-2.43,1.59-3.45-3.33,1.51-2.48a11.51,11.51,0,0,1-1.25-2.86l-2.84-.6-.08-4.79,2.81-.69a11.54,11.54,0,0,1,1.15-2.91L419,163.3l3.33-3.45,2.48,1.51Zm2.56,6.38a5.14,5.14,0,1,0,7.27-.12A5.15,5.15,0,0,0,427.36,167.74Z" transform="translate(-22.23 -9.5)"/><path class="cls-6" d="M198.58,44.59a20.48,20.48,0,0,1,5-2.16l1-4.93,8.32-.14,1.2,4.88a20.74,20.74,0,0,1,5,2l4.21-2.76,6,5.79-2.61,4.3a20.31,20.31,0,0,1,2.16,5l4.93,1,.15,8.33-4.89,1.2a20.34,20.34,0,0,1-2,5l2.76,4.21-5.78,6-4.31-2.61a20.41,20.41,0,0,1-5,2.16l-1,4.93-8.33.14-1.19-4.88a20.42,20.42,0,0,1-5-2L195,82.85l-6-5.79,2.61-4.3a20,20,0,0,1-2.17-5l-4.93-1-.14-8.33,4.89-1.2a20.71,20.71,0,0,1,2-5L188.5,48l5.78-6,4.3,2.61ZM203,55.68a8.93,8.93,0,1,0,12.63-.22A8.93,8.93,0,0,0,203,55.68Z" transform="translate(-22.23 -9.5)"/></g><g id="Lines"><path class="cls-2" d="M167.8,163.19c-.07.13-7.29-3.67-16.12-8.48s-15.93-8.82-15.86-8.94,7.28,3.67,16.11,8.48S167.86,163.06,167.8,163.19Z" transform="translate(-22.23 -9.5)"/><path class="cls-2" d="M246.48,78.62c.15,0,.26,9.21.26,20.55s-.11,20.56-.26,20.56-.26-9.2-.26-20.56S246.34,78.62,246.48,78.62Z" transform="translate(-22.23 -9.5)"/><path class="cls-2" d="M201.38,128.05c-.11.09-3.07-3.77-6.6-8.62s-6.3-8.85-6.19-8.93,3.07,3.78,6.61,8.62S201.5,128,201.38,128.05Z" transform="translate(-22.23 -9.5)"/><path class="cls-2" d="M325.65,174c-.06-.13,7-4.13,15.87-8.94s16-8.61,16.11-8.49-7,4.13-15.86,8.94S325.72,174.11,325.65,174Z" transform="translate(-22.23 -9.5)"/><path class="cls-2" d="M297.4,132.44c-.11-.08,2.66-4.08,6.19-8.93s6.49-8.7,6.6-8.62-2.65,4.08-6.18,8.93S297.52,132.53,297.4,132.44Z" transform="translate(-22.23 -9.5)"/></g><g id="Puzzle_pieces" data-name="Puzzle pieces"><path class="cls-5" d="M90.48,273.25c1.06,1.6,3.13,2.19,4.46,2.41A3,3,0,0,1,97,277a3.2,3.2,0,0,1-.56,4.42L81,292.05l10.07,14.61a3.26,3.26,0,0,0,4.17.31,3.06,3.06,0,0,0,1.36-2.05c.22-1.33.82-3.4,2.43-4.44,2.49-1.63,5.53-.77,7.37,2.06s1.39,5.95-1.1,7.57c-1.6,1.05-3.74.76-5.05.43A3.08,3.08,0,0,0,96.81,315l10.43,15.15,16.05-11.29a3.1,3.1,0,0,1,4.29.88,3,3,0,0,1,.43,2.42c-.32,1.31-.6,3.44.46,5,1.64,2.49,4.77,2.91,7.58,1s3.65-4.9,2-7.38c-1.05-1.6-3.12-2.19-4.46-2.4a3.1,3.1,0,0,1-1.17-5.64L150,301.29l-26.5-38.49-18.22,12.46a3.1,3.1,0,0,1-4.29-.88,3,3,0,0,1-.43-2.42c.32-1.31.59-3.44-.46-5-1.64-2.48-4.77-2.91-7.58-1.05S88.85,270.77,90.48,273.25Z" transform="translate(-22.23 -9.5)"/><path class="cls-6" d="M398.84,235.29a6.57,6.57,0,0,0-5-.57,3.06,3.06,0,0,1-2.4-.49,3.18,3.18,0,0,1-1.13-4.3l10.37-15.62-14.79-9.82a3.26,3.26,0,0,0-4,1.28,3.06,3.06,0,0,0-.5,2.4c.29,1.32.5,3.46-.6,5-1.71,2.44-4.85,2.77-7.61.84s-3.51-5-1.8-7.44c1.1-1.57,3.18-2.1,4.52-2.28A3,3,0,0,0,378,203a3.08,3.08,0,0,0-.57-4.15l-15.32-10.18-10.69,16.46a3.11,3.11,0,0,1-4.31.78,3,3,0,0,1-1.3-2.08c-.19-1.34-.73-3.42-2.31-4.51-2.44-1.69-5.51-.92-7.42,1.85s-1.57,5.91.88,7.6a6.55,6.55,0,0,0,5,.57,3.09,3.09,0,0,1,3.19,4.79l-12,17.27,38.93,25.85,12.27-18.36a3.09,3.09,0,0,1,4.31-.78,3,3,0,0,1,1.3,2.08,6.55,6.55,0,0,0,2.3,4.51c2.45,1.69,5.51.92,7.43-1.85S401.28,237,398.84,235.29Z" transform="translate(-22.23 -9.5)"/><path class="cls-7" d="M72,104.15a5.11,5.11,0,0,0,1.62-3.62,2.38,2.38,0,0,1,.94-1.67A2.49,2.49,0,0,1,78,99l9.17,11.46,10.84-8.68a2.55,2.55,0,0,0,0-3.28,2.36,2.36,0,0,0-1.67-.94A5.18,5.18,0,0,1,92.77,96c-1.4-1.86-.9-4.28,1.2-5.87s4.56-1.43,6,.43a5.12,5.12,0,0,1,.62,3.92,2.35,2.35,0,0,0,.46,1.86,2.42,2.42,0,0,0,3.23.57l11.24-9L105.77,76a2.43,2.43,0,0,1,.45-3.4,2.35,2.35,0,0,1,1.86-.47,5.16,5.16,0,0,0,3.91-.64c1.85-1.42,2-3.89.39-6s-4-2.58-5.87-1.16a5.15,5.15,0,0,0-1.63,3.62,2.39,2.39,0,0,1-.93,1.68,2.42,2.42,0,0,1-3.4-.45l-10-13L62,79,72.73,92.5a2.43,2.43,0,0,1-2.3,3.88,5.13,5.13,0,0,0-3.92.64c-1.84,1.42-2,3.88-.39,6S70.15,105.57,72,104.15Z" transform="translate(-22.23 -9.5)"/></g><g id="Box"><polygon class="cls-5" points="112.31 310.86 112.31 426.49 225.29 472.89 225.29 351.94 112.31 310.86"/><polygon class="cls-5" points="337.54 313.89 338.43 426.83 225.29 472.89 225.29 351.94 337.54 313.89"/><g class="cls-8"><polygon points="338.43 377.15 258.68 408.32 225.29 351.94 338.19 347.64 338.43 377.15"/></g><polygon class="cls-6" points="112.31 310.86 225.29 272.21 337.76 313.69 225.29 351.94 112.31 310.86"/><g class="cls-4"><polygon points="119.99 310.29 225.5 274.19 330.59 312.95 225.56 348.67 119.99 310.29"/></g><g class="cls-8"><path d="M134.54,399.3l77.73,30.22,35.25-68.08S134,377.15,134.46,377.15,134.54,399.3,134.54,399.3Z" transform="translate(-22.23 -9.5)"/></g><polygon class="cls-6" points="189.9 402.9 77.32 360.31 112.31 310.86 225.29 351.94 189.9 402.9"/><polygon class="cls-6" points="260.94 400.52 225.29 351.94 337.76 313.69 371.71 360.86 260.94 400.52"/></g><g id="Light_Bulb" data-name="Light Bulb"><path class="cls-9" d="M319.23,213.5c.37-39.53-30.94-71.05-69.93-70.41s-70.88,33.2-71.24,72.72c-.27,28.62,16.07,53,39.91,64.09-.08,8.48-.17,18.05-.17,18.05l61.87-1s.47-10.14.69-19.19A73.88,73.88,0,0,0,319.23,213.5Z" transform="translate(-22.23 -9.5)"/><path class="cls-10" d="M241.51,296.71c-.15-23.21,1.24-46.45.67-69.65-.12-4.69-.3-9.38-.8-14-.64-5.84-1.92-12.32-7.27-15.49a9,9,0,0,0-7.85-.83,11.51,11.51,0,0,0-5.62,5.68c-2.66,5.19-3.24,11.54-2.46,17.18,1.6,11.54,9,21.49,19.94,25.29a32.13,32.13,0,0,0,32.41-6.9c8.45-8.11,13.07-22,9.08-33.19-1.73-4.82-5.85-10.19-11.56-9.46-5.55.7-8.26,6.32-9.49,11.22-1.43,5.68-1.73,11.73-2.2,17.53-.54,6.77-.89,13.54-1.18,20.32-.58,13.95-.84,27.91-1.43,41.86q-.19,4.62-.46,9.24c-.06,1,1.54.95,1.6-.08,1.43-24.7,1.1-49.45,3.3-74.12.48-5.43.77-11.2,2.5-16.44.85-2.54,2.18-5.26,4.48-6.78a6.89,6.89,0,0,1,7.73,0c4.93,3.22,6.46,9.9,6.45,15.54a32.8,32.8,0,0,1-4.74,16.66,30.3,30.3,0,0,1-29,14.55,28.61,28.61,0,0,1-24.37-19.36,31.43,31.43,0,0,1-1.19-16.3c1.09-5.43,4.52-13.1,11.26-11.12,6.46,1.9,7.88,9.39,8.51,15.3.43,4.1.62,8.23.74,12.35.62,21.49-.46,43-.63,64.55,0,2.18,0,4.35,0,6.53,0,1,1.6.95,1.6-.09Z" transform="translate(-22.23 -9.5)"/><g id="_2gGvdE.tif" data-name="2gGvdE.tif"><path class="cls-6" d="M234.37,329.74a18.52,18.52,0,0,1,4,3.57,4.06,4.06,0,0,0,3.28,1.53l12.45-.22a4.29,4.29,0,0,0,3.5-1.92,8.06,8.06,0,0,1,4.28-3.43Z" transform="translate(-22.23 -9.5)"/></g><path class="cls-6" d="M221.19,294.83c0,.25,2.72,19.92,3.76,27.44a9,9,0,0,0,5.08,7.05,8.29,8.29,0,0,0,3.54.73l27.23-.47s7.12-.12,8.78-5.87c1.75-6.06,5.16-29.8,5.16-29.8Z" transform="translate(-22.23 -9.5)"/><path class="cls-6" d="M272.93,319.91l-49.45,1a1.32,1.32,0,0,1-1.34-1.34v-.14a1.4,1.4,0,0,1,1.36-1.4L273,317a1.32,1.32,0,0,1,1.34,1.34v.15A1.4,1.4,0,0,1,272.93,319.91Z" transform="translate(-22.23 -9.5)"/><path class="cls-3" d="M274.71,307.46l-52.79,1.09a1.31,1.31,0,0,1-1.34-1.34v-.15a1.39,1.39,0,0,1,1.36-1.39l52.78-1.1a1.33,1.33,0,0,1,1.35,1.34v.15A1.42,1.42,0,0,1,274.71,307.46Z" transform="translate(-22.23 -9.5)"/><path class="cls-3" d="M274.71,307.46a1.45,1.45,0,0,0,1.26-1.84,1.26,1.26,0,0,0-1.35-1l-12.26.33-40.42.91a1.17,1.17,0,0,0-1,.63,1.45,1.45,0,0,0,0,1.22,1.1,1.1,0,0,0,1,.57l1.45,0,5.68-.11,10.73-.21,18.18-.33,12.25-.18,3.33,0h.86a1,1,0,0,1,.3,0l-.3,0-.86,0-3.33.11L258,308l-18.17.43-10.73.23-5.68.12-1.45,0a1.52,1.52,0,0,1-1.39-.8,1.6,1.6,0,0,1-.19-.82,1.66,1.66,0,0,1,1.59-1.73l40.42-.77,12.26-.18a1.41,1.41,0,0,1,1.48,1.11,1.67,1.67,0,0,1-.33,1.4,1.42,1.42,0,0,1-.76.45A.85.85,0,0,1,274.71,307.46Z" transform="translate(-22.23 -9.5)"/><path class="cls-6" d="M215,282c0,.51,1,12.56,1.54,18.75a7.29,7.29,0,0,0,3.29,5.51l2.76,1.77,52.65-.9,2.76-1.84a7.79,7.79,0,0,0,3.39-5.71l1.72-18.75Z" transform="translate(-22.23 -9.5)"/><circle class="cls-11" cx="414.36" cy="95.2" r="5.53"/><circle class="cls-11" cx="129.58" cy="33.98" r="6.13"/><path class="cls-11" d="M81,353.55a4.63,4.63,0,1,1-4.62-4.63A4.63,4.63,0,0,1,81,353.55Z" transform="translate(-22.23 -9.5)"/><path class="cls-11" d="M332.11,274.88a5.69,5.69,0,1,1-5.69-5.69A5.69,5.69,0,0,1,332.11,274.88Z" transform="translate(-22.23 -9.5)"/></g></svg>