<svg id="Background_Simple" data-name="Background Simple" xmlns="http://www.w3.org/2000/svg" viewBox="0 0 465.71 477.94"><defs><style>.cls-1{fill:#fcb890;}.cls-2{fill:#fff;}.cls-11,.cls-13,.cls-14,.cls-17,.cls-18,.cls-2,.cls-20,.cls-21,.cls-22,.cls-3,.cls-4,.cls-5,.cls-6,.cls-7,.cls-8,.cls-9{stroke:#000;stroke-miterlimit:10;}.cls-11,.cls-13,.cls-14,.cls-17,.cls-18,.cls-2,.cls-21,.cls-22,.cls-4,.cls-5,.cls-6{stroke-width:0.5px;}.cls-11,.cls-20,.cls-22,.cls-3{fill:#b4db9d;}.cls-20,.cls-3,.cls-9{stroke-width:0.75px;}.cls-11,.cls-13,.cls-3,.cls-9{fill-rule:evenodd;}.cls-19,.cls-4,.cls-8{fill:#283237;}.cls-13,.cls-5{fill:#fe9595;}.cls-6,.cls-9{fill:#ffce34;}.cls-18,.cls-7{fill:#fafafa;}.cls-7,.cls-8{stroke-width:0.25px;}.cls-10{opacity:0.8;}.cls-12{opacity:0.4;}.cls-14{fill:#d75b5f;}.cls-15{opacity:0.3;}.cls-16{opacity:0.5;}.cls-21{fill:none;}</style></defs><title>mensagem3</title><path class="cls-1" d="M146.09,25.87C116.16,38.79,93.51,60.44,72.58,85.38a328.19,328.19,0,0,0-46.16,73.41c-12.21,26.42-19.09,58.56-1.07,84,11.16,15.79,27.7,22.94,43.09,33.45,2.84,1.94,6.83,3.92,6.8,7.78,0,5.87-10.8,12.12-14.5,15.47-9.11,8.26-17.93,16.9-25.52,26.61-11.12,14.22-19.59,31-21.18,49-1.72,19.58,4.94,39.34,16.17,55.46,16.35,23.47,42.25,41.76,69.33,50.6,14.48,4.73,29.84,6.14,45,5.67a230.42,230.42,0,0,0,45.65-6.17c23.13-5.5,47.23-14.27,71.24-9,25.74,5.6,50.88,12.23,77,16.18,33.51,5.06,81.58,11.52,109-13.13,19.67-17.72,28.87-46.32,31.33-71.93,1.46-15.18,1.17-32.28-3.89-46.85C468,336.19,455.47,318,445.64,299.7c-6.08-11.32-11.44-23.34-13.6-36.09-2.37-14.06,1.85-23.2,8.7-35.31,24.48-43.24,44.48-105.51,18.5-152.28-8.16-14.69-24-21.54-40.5-22.1-14.5-.49-28.77,3.59-42.38,8.64-25.57,9.5-66,33.73-93,17.55-15.58-9.34-21.53-28.7-32.49-42.3-11.79-14.62-30-22.05-48.44-23.06C183.52,13.73,163.38,18.41,146.09,25.87Z" transform="translate(-13.77 -14.61)"/><circle class="cls-2" cx="104.2" cy="195.78" r="52.68" transform="translate(-121.69 116.41) rotate(-45)"/><path class="cls-2" d="M128.1,193.89a10,10,0,0,1-1.82.4l-5,.85c-4.29.69-10.28,1.61-17,2.62l-.34.05,0-.34-.5-3.37c-1.11-7.55-2.08-14.39-2.75-19.35-.31-2.39-.56-4.37-.76-5.87a12.81,12.81,0,0,1-.18-2.17,13.25,13.25,0,0,1,.45,2.13c.25,1.49.57,3.46,1,5.84.79,4.94,1.83,11.77,2.95,19.32.17,1.15.33,2.29.49,3.38l-.38-.29c6.76-1,12.75-1.83,17.06-2.4l5.08-.65A12.09,12.09,0,0,1,128.1,193.89Z" transform="translate(-13.77 -14.61)"/><path class="cls-2" d="M97.65,152.24c.19,0,.63,1.91,1,4.33s.5,4.4.31,4.43-.63-1.91-1-4.33S97.46,152.27,97.65,152.24Z" transform="translate(-13.77 -14.61)"/><path class="cls-2" d="M122.43,155.77c.15.12-.89,1.77-2.33,3.71s-2.72,3.41-2.87,3.3.89-1.77,2.33-3.71S122.28,155.66,122.43,155.77Z" transform="translate(-13.77 -14.61)"/><path class="cls-2" d="M138.55,168.9c.11.15-1.39,1.39-3.24,2.92s-3.34,2.78-3.47,2.64,1.17-1.62,3-3.16S138.45,168.74,138.55,168.9Z" transform="translate(-13.77 -14.61)"/><path class="cls-2" d="M150,190.2c0,.19-2.63.73-5.92,1.22s-6,.73-6,.54,2.62-.73,5.92-1.21S150,190,150,190.2Z" transform="translate(-13.77 -14.61)"/><path class="cls-2" d="M67.11,201.61c0,.19-2.47.71-5.59,1.17s-5.66.68-5.69.49,2.48-.71,5.59-1.17S67.08,201.42,67.11,201.61Z" transform="translate(-13.77 -14.61)"/><path class="cls-2" d="M75.43,217.5c.15.13-1.5,2.14-3.69,4.5s-4,4.16-4.19,4,1.52-2.15,3.69-4.5S75.29,217.38,75.43,217.5Z" transform="translate(-13.77 -14.61)"/><path class="cls-2" d="M91.79,228.33c.17.09-.92,2.48-2.16,5.46s-2.17,5.43-2.35,5.37.46-2.63,1.72-5.64S91.63,228.25,91.79,228.33Z" transform="translate(-13.77 -14.61)"/><path class="cls-2" d="M111,242.58c-.19,0-.73-2.62-1.22-5.92s-.73-6-.54-6,.73,2.62,1.21,5.92S111.15,242.56,111,242.58Z" transform="translate(-13.77 -14.61)"/><path class="cls-2" d="M135.53,230.84c-.08.16-2.61-.84-5.42-2.65s-4.78-3.69-4.67-3.82,2.26,1.47,5,3.25S135.61,230.66,135.53,230.84Z" transform="translate(-13.77 -14.61)"/><path class="cls-2" d="M145.69,216.05c-.12.15-2.12-1.14-4.47-2.89s-4.17-3.29-4.06-3.44,2.11,1.14,4.47,2.89S145.8,215.9,145.69,216.05Z" transform="translate(-13.77 -14.61)"/><path class="cls-2" d="M70.05,184.78c-.11.15-1.87-1-3.93-2.5s-3.64-2.9-3.53-3.05,1.88,1,3.93,2.5S70.16,184.62,70.05,184.78Z" transform="translate(-13.77 -14.61)"/><path class="cls-2" d="M82.64,166.88c-.11.15-1.84-.94-3.86-2.43s-3.57-2.83-3.46-3,1.84.93,3.86,2.43S82.75,166.73,82.64,166.88Z" transform="translate(-13.77 -14.61)"/><path class="cls-3" d="M442.92,197.56a34.75,34.75,0,0,1,7.58,5.34l8.09-2.88,7.62,12-6.07,6.09a34.89,34.89,0,0,1,1.59,9.13l7.76,3.69-3.11,13.88h-8.59a34.85,34.85,0,0,1-5.34,7.58l2.88,8.1-12,7.61-6.09-6.06a35.38,35.38,0,0,1-9.14,1.59l-3.68,7.76-13.88-3.11,0-8.6a35,35,0,0,1-7.58-5.34l-8.09,2.89-7.62-12,6.07-6.09A34.82,34.82,0,0,1,391.7,230l-7.76-3.69,3.11-13.87,8.59,0a34.85,34.85,0,0,1,5.34-7.58l-2.88-8.1,12-7.61,6.09,6.07a34.55,34.55,0,0,1,9.14-1.59l3.68-7.76L442.9,189l0,8.59Zm-12.23,16.33a15.26,15.26,0,1,0,11.54,18.22A15.25,15.25,0,0,0,430.69,213.89Z" transform="translate(-13.77 -14.61)"/><path class="cls-4" d="M150.82,403.83c.13-.08.57.36,1,1s.65,1.21.52,1.3-.57-.35-1-1S150.69,403.92,150.82,403.83Z" transform="translate(-13.77 -14.61)"/><path class="cls-4" d="M146.13,393.91a7,7,0,0,1,1.3,2.44,7.09,7.09,0,0,1,.78,2.66,13.57,13.57,0,0,1-2.08-5.1Z" transform="translate(-13.77 -14.61)"/><path class="cls-4" d="M143.57,383.2a7.23,7.23,0,0,1,.78,2.66,7.09,7.09,0,0,1,.23,2.77,7.07,7.07,0,0,1-.78-2.66A6.67,6.67,0,0,1,143.57,383.2Z" transform="translate(-13.77 -14.61)"/><path class="cls-4" d="M143.12,372.19a6.81,6.81,0,0,1,.26,2.76,7.21,7.21,0,0,1-.3,2.76,6.87,6.87,0,0,1-.26-2.76A7,7,0,0,1,143.12,372.19Z" transform="translate(-13.77 -14.61)"/><path class="cls-4" d="M144.81,361.3a13.64,13.64,0,0,1-1.11,5.4,13.64,13.64,0,0,1,1.11-5.4Z" transform="translate(-13.77 -14.61)"/><path class="cls-4" d="M148.64,351a13.45,13.45,0,0,1-2.18,5.05,6.67,6.67,0,0,1,.83-2.64A6.94,6.94,0,0,1,148.64,351Z" transform="translate(-13.77 -14.61)"/><path class="cls-4" d="M154.54,341.78a6.92,6.92,0,0,1-1.37,2.39c-.88,1.22-1.7,2.14-1.82,2.06s.48-1.16,1.37-2.4S154.42,341.68,154.54,341.78Z" transform="translate(-13.77 -14.61)"/><path class="cls-4" d="M161.76,333.57c.11.11-.62,1.09-1.65,2.2s-1.94,1.92-2.05,1.81.62-1.09,1.64-2.2S161.65,333.46,161.76,333.57Z" transform="translate(-13.77 -14.61)"/><path class="cls-4" d="M169.33,325.68c.11.11-.64,1.08-1.69,2.18s-2,1.88-2.09,1.77.65-1.08,1.69-2.17S169.22,325.57,169.33,325.68Z" transform="translate(-13.77 -14.61)"/><path class="cls-4" d="M176.39,317.33a7,7,0,0,1-1.49,2.32c-.94,1.19-1.8,2.07-1.92,2a7,7,0,0,1,1.48-2.32C175.4,318.11,176.26,317.23,176.39,317.33Z" transform="translate(-13.77 -14.61)"/><path class="cls-4" d="M181.85,307.83a6.11,6.11,0,0,1-.89,2.63c-.69,1.37-1.43,2.37-1.56,2.28a8.06,8.06,0,0,1,1-2.54A8.17,8.17,0,0,1,181.85,307.83Z" transform="translate(-13.77 -14.61)"/><path class="cls-4" d="M184.42,297.15a6,6,0,0,1,0,2.79,5.86,5.86,0,0,1-.82,2.66,8.88,8.88,0,0,1,.26-2.75A8.71,8.71,0,0,1,184.42,297.15Z" transform="translate(-13.77 -14.61)"/><path class="cls-4" d="M183.56,286.2a10,10,0,0,1,.86,5.44,22.05,22.05,0,0,1-.86-5.44Z" transform="translate(-13.77 -14.61)"/><path class="cls-4" d="M179.25,276.13c.13-.09.93.87,1.65,2.22a5.82,5.82,0,0,1,.93,2.62,23.41,23.41,0,0,1-2.58-4.84Z" transform="translate(-13.77 -14.61)"/><path class="cls-4" d="M171.67,268.35a5.53,5.53,0,0,1,2.34,1.43c1.17,1,1.93,2,1.82,2.08s-1-.68-2.18-1.64S171.58,268.48,171.67,268.35Z" transform="translate(-13.77 -14.61)"/><path class="cls-4" d="M161.82,263.93a5.37,5.37,0,0,1,2.69.48,5.61,5.61,0,0,1,2.43,1.27,8.47,8.47,0,0,1-2.61-.72A8.91,8.91,0,0,1,161.82,263.93Z" transform="translate(-13.77 -14.61)"/><path class="cls-4" d="M151.08,263.49a5.41,5.41,0,0,1,2.67-.59,5.31,5.31,0,0,1,2.72.27,8.93,8.93,0,0,1-2.69.3A8.57,8.57,0,0,1,151.08,263.49Z" transform="translate(-13.77 -14.61)"/><path class="cls-4" d="M141.13,267.6c-.09-.13.83-1,2.16-1.7a5.15,5.15,0,0,1,2.58-.93,9,9,0,0,1-2.31,1.43A9,9,0,0,1,141.13,267.6Z" transform="translate(-13.77 -14.61)"/><path class="cls-4" d="M133.75,275.57a5.69,5.69,0,0,1,1.31-2.45c.92-1.22,1.87-2,2-1.92a9,9,0,0,1-1.53,2.27C134.61,274.67,133.89,275.65,133.75,275.57Z" transform="translate(-13.77 -14.61)"/><path class="cls-4" d="M130.17,285.89a5.52,5.52,0,0,1,.19-2.78,5.68,5.68,0,0,1,1-2.58,9.18,9.18,0,0,1-.49,2.71A9.34,9.34,0,0,1,130.17,285.89Z" transform="translate(-13.77 -14.61)"/><path class="cls-4" d="M131.51,296.75a5.71,5.71,0,0,1-1.07-2.57,5.56,5.56,0,0,1-.23-2.78,28.22,28.22,0,0,1,1.3,5.35Z" transform="translate(-13.77 -14.61)"/><path class="cls-4" d="M137.05,306.17c-.12.1-1-.76-1.91-2a5.86,5.86,0,0,1-1.27-2.47c.14-.08.86.91,1.73,2.13A8.33,8.33,0,0,1,137.05,306.17Z" transform="translate(-13.77 -14.61)"/><path class="cls-4" d="M145.05,313.56c-.09.13-1.16-.48-2.34-1.44s-2-1.89-1.89-2,1.08.62,2.24,1.56S145.14,313.42,145.05,313.56Z" transform="translate(-13.77 -14.61)"/><path class="cls-4" d="M154.45,319a6.91,6.91,0,0,1-2.55-1c-1.34-.69-2.37-1.36-2.29-1.5a6.67,6.67,0,0,1,2.55,1A6.81,6.81,0,0,1,154.45,319Z" transform="translate(-13.77 -14.61)"/><path class="cls-4" d="M164.75,322.27a10,10,0,0,1-5.24-1.34,17.84,17.84,0,0,1,5.24,1.34Z" transform="translate(-13.77 -14.61)"/><path class="cls-4" d="M175.52,322.77a5.57,5.57,0,0,1-2.69.47,5.66,5.66,0,0,1-2.71-.33,8,8,0,0,1,2.69-.25A8.32,8.32,0,0,1,175.52,322.77Z" transform="translate(-13.77 -14.61)"/><path class="cls-4" d="M185.91,319.88a5.8,5.8,0,0,1-2.41,1.32,5.57,5.57,0,0,1-2.67.57,8.15,8.15,0,0,1,2.48-1.11A7.91,7.91,0,0,1,185.91,319.88Z" transform="translate(-13.77 -14.61)"/><path class="cls-4" d="M194.89,313.8c.1.12-.71,1.06-1.9,2a5.79,5.79,0,0,1-2.37,1.38c-.09-.13.85-.91,2-1.84S194.78,313.68,194.89,313.8Z" transform="translate(-13.77 -14.61)"/><path class="cls-4" d="M201.88,305.42a6.13,6.13,0,0,1-1.32,2.44c-.89,1.23-1.79,2.09-1.91,2a8.39,8.39,0,0,1,1.46-2.33C201,306.3,201.74,305.33,201.88,305.42Z" transform="translate(-13.77 -14.61)"/><path class="cls-4" d="M206.5,295.47a6,6,0,0,1-.65,2.71,5.87,5.87,0,0,1-1.34,2.42,8.23,8.23,0,0,1,.82-2.64A8.52,8.52,0,0,1,206.5,295.47Z" transform="translate(-13.77 -14.61)"/><path class="cls-4" d="M208.53,284.66a6.14,6.14,0,0,1,0,2.78,6.29,6.29,0,0,1-.71,2.69,8.34,8.34,0,0,1,.15-2.77A8.14,8.14,0,0,1,208.53,284.66Z" transform="translate(-13.77 -14.61)"/><path class="cls-4" d="M208.19,273.64a13.47,13.47,0,0,1,.45,5.5,7.23,7.23,0,0,1-.5-2.73A7.09,7.09,0,0,1,208.19,273.64Z" transform="translate(-13.77 -14.61)"/><path class="cls-4" d="M205.79,262.89a13.63,13.63,0,0,1,1.44,5.32,13.63,13.63,0,0,1-1.44-5.32Z" transform="translate(-13.77 -14.61)"/><path class="cls-4" d="M201.59,252.72a6.68,6.68,0,0,1,1.45,2.35,7,7,0,0,1,.86,2.64c-.15.07-.76-1-1.37-2.39A7,7,0,0,1,201.59,252.72Z" transform="translate(-13.77 -14.61)"/><path class="cls-4" d="M196.22,243.14c.13-.08.86.92,1.62,2.23a6.7,6.7,0,0,1,1.14,2.52c-.13.08-.86-.92-1.62-2.23A7,7,0,0,1,196.22,243.14Z" transform="translate(-13.77 -14.61)"/><path class="cls-4" d="M190.8,233.59a6.91,6.91,0,0,1,1.57,2.27,6.78,6.78,0,0,1,1.07,2.55,7,7,0,0,1-1.56-2.27A6.71,6.71,0,0,1,190.8,233.59Z" transform="translate(-13.77 -14.61)"/><path class="cls-4" d="M186.52,223.47a13.74,13.74,0,0,1,1.92,5.16,6.78,6.78,0,0,1-1.23-2.48A6.85,6.85,0,0,1,186.52,223.47Z" transform="translate(-13.77 -14.61)"/><path class="cls-4" d="M184.62,212.64a19,19,0,0,1,.6,5.48,6,6,0,0,1-.66-2.7A6.16,6.16,0,0,1,184.62,212.64Z" transform="translate(-13.77 -14.61)"/><path class="cls-4" d="M185.45,201.66a7.87,7.87,0,0,1-.18,2.76,8.14,8.14,0,0,1-.57,2.7,10.49,10.49,0,0,1,.75-5.46Z" transform="translate(-13.77 -14.61)"/><path class="cls-4" d="M188.92,191.23a8.3,8.3,0,0,1-.85,2.63,8.15,8.15,0,0,1-1.21,2.47,6.3,6.3,0,0,1,.69-2.69A6,6,0,0,1,188.92,191.23Z" transform="translate(-13.77 -14.61)"/><path class="cls-4" d="M194.89,182.07a8,8,0,0,1-1.49,2.31c-.9,1.2-1.66,2.16-1.79,2.07A6,6,0,0,1,193,184C193.87,182.81,194.78,182,194.89,182.07Z" transform="translate(-13.77 -14.61)"/><path class="cls-4" d="M203,174.76c.09.14-.84.93-2,1.86s-2.14,1.66-2.25,1.54.72-1,1.91-2A5.88,5.88,0,0,1,203,174.76Z" transform="translate(-13.77 -14.61)"/><path class="cls-4" d="M212.56,169.72a8,8,0,0,1-2.4,1.29,7.88,7.88,0,0,1-2.55.93c-.08-.14.94-.84,2.32-1.46A5.84,5.84,0,0,1,212.56,169.72Z" transform="translate(-13.77 -14.61)"/><path class="cls-4" d="M220.38,167.65c0,.16-.55.4-1.27.54s-1.35.13-1.38,0,.53-.4,1.27-.54S220.36,167.5,220.38,167.65Z" transform="translate(-13.77 -14.61)"/><path class="cls-5" d="M319.27,115.78c-5.55-2.31-22.78-5.59-34.57,1.34l-47.11,27c.54,1,14.23,26.94,14.23,26.94l51-26.9" transform="translate(-13.77 -14.61)"/><path class="cls-5" d="M318.92,115.64s.39,16.81-16.37,28.67" transform="translate(-13.77 -14.61)"/><path class="cls-6" d="M248.49,172.91l-2.29,17.43s31.15-12.44,24.8-29.17Z" transform="translate(-13.77 -14.61)"/><path class="cls-6" d="M256.89,133s-19.51-10.34-37.27,1.67l15,11.38Z" transform="translate(-13.77 -14.61)"/><path class="cls-6" d="M257.56,148.65l-30.36,16.1s.77,3.19,1.57,3,23.43-11.51,30.81-15.19a2.18,2.18,0,0,0,.8-3.23h0A2.19,2.19,0,0,0,257.56,148.65Z" transform="translate(-13.77 -14.61)"/><circle class="cls-7" cx="282.79" cy="136.6" r="9.33" transform="translate(54.4 351.27) rotate(-72.67)"/><path class="cls-8" d="M292.1,137.27c-.08,0,0-.83-.25-2.27a9.3,9.3,0,0,0-3.05-5.22,9,9,0,0,0-8.47-1.86,9.06,9.06,0,0,0-6.52,8,9.07,9.07,0,0,0,5.31,8.89,9.09,9.09,0,0,0,8.65-.64,9.28,9.28,0,0,0,3.76-4.73c.47-1.39.5-2.22.57-2.21a2.09,2.09,0,0,1,0,.6,7.27,7.27,0,0,1-.33,1.69,9.3,9.3,0,0,1-3.74,5,9.56,9.56,0,0,1-13.38-2.86,9.54,9.54,0,0,1,.82-11.36,9.43,9.43,0,0,1,4.71-3,9.66,9.66,0,0,1,5.06,0,9.52,9.52,0,0,1,3.87,2.11,9.32,9.32,0,0,1,3,5.51,7.26,7.26,0,0,1,.08,1.72A2.53,2.53,0,0,1,292.1,137.27Z" transform="translate(-13.77 -14.61)"/><path class="cls-8" d="M302.32,144.5a8.66,8.66,0,0,0-.08-3.67,36.48,36.48,0,0,0-1.29-5.05,35.91,35.91,0,0,0-6.08-11.15,35.87,35.87,0,0,0-3.54-3.82c-2.18-2-5.1-4.09-5-4.19s1.79,1.25,2.5,1.7a13,13,0,0,1,1.25.88c.47.37,1,.77,1.58,1.28a32,32,0,0,1,3.7,3.79,35.65,35.65,0,0,1,3.63,5.37,36.29,36.29,0,0,1,2.55,6,32.35,32.35,0,0,1,1.17,5.16c.13.74.16,1.43.22,2s-.13-1.88-.13-1.45C302.8,141,302.72,144.15,302.32,144.5Z" transform="translate(-13.77 -14.61)"/><path class="cls-9" d="M94.56,347.35a22.78,22.78,0,0,1,6,1l4-4,7.9,4.95-1.86,5.31a23.39,23.39,0,0,1,3.53,4.95h5.63l2.09,9.08-5.08,2.44a22.31,22.31,0,0,1-1,6l4,4-4.94,7.9-5.32-1.86a23.39,23.39,0,0,1-5,3.53l0,5.63-9.09,2.09L93,393.26a22.37,22.37,0,0,1-6-1l-4,4-7.9-4.94L77,386A23.39,23.39,0,0,1,73.47,381l-5.63,0L65.75,372l5.08-2.44a22.37,22.37,0,0,1,1-6l-4-4,4.94-7.9,5.32,1.86a23,23,0,0,1,5-3.52l0-5.64,9.09-2.09,2.44,5.08ZM92,360.47a10,10,0,1,0,12,7.5A10,10,0,0,0,92,360.47Z" transform="translate(-13.77 -14.61)"/><g class="cls-10"><path class="cls-9" d="M94.56,347.35a22.78,22.78,0,0,1,6,1l4-4,7.9,4.95-1.86,5.31a23.39,23.39,0,0,1,3.53,4.95h5.63l2.09,9.08-5.08,2.44a22.31,22.31,0,0,1-1,6l4,4-4.94,7.9-5.32-1.86a23.39,23.39,0,0,1-5,3.53l0,5.63-9.09,2.09L93,393.26a22.37,22.37,0,0,1-6-1l-4,4-7.9-4.94L77,386A23.39,23.39,0,0,1,73.47,381l-5.63,0L65.75,372l5.08-2.44a22.37,22.37,0,0,1,1-6l-4-4,4.94-7.9,5.32,1.86a23,23,0,0,1,5-3.52l0-5.64,9.09-2.09,2.44,5.08ZM92,360.47a10,10,0,1,0,12,7.5A10,10,0,0,0,92,360.47Z" transform="translate(-13.77 -14.61)"/></g><path class="cls-11" d="M92.54,426.81a11.07,11.07,0,0,1,3,.5l2-2,3.92,2.45-.92,2.64a11.41,11.41,0,0,1,1.75,2.46H105l1,4.51-2.52,1.21a11.33,11.33,0,0,1-.5,3l2,2-2.45,3.92-2.64-.93a10.77,10.77,0,0,1-2.46,1.75v2.8l-4.51,1-1.21-2.52a11.91,11.91,0,0,1-3-.5l-2,2-3.92-2.45.93-2.64a11.36,11.36,0,0,1-1.76-2.46H79.28l-1-4.51,2.52-1.21a11.48,11.48,0,0,1,.5-3l-2-2L81.73,429l2.64.92a11.41,11.41,0,0,1,2.46-1.75v-2.79l4.51-1,1.21,2.52Zm-1.29,6.51a5,5,0,1,0,6,3.72A5,5,0,0,0,91.25,433.32Z" transform="translate(-13.77 -14.61)"/><g class="cls-12"><path class="cls-11" d="M92.54,426.81a11.07,11.07,0,0,1,3,.5l2-2,3.92,2.45-.92,2.64a11.41,11.41,0,0,1,1.75,2.46H105l1,4.51-2.52,1.21a11.33,11.33,0,0,1-.5,3l2,2-2.45,3.92-2.64-.93a10.77,10.77,0,0,1-2.46,1.75v2.8l-4.51,1-1.21-2.52a11.91,11.91,0,0,1-3-.5l-2,2-3.92-2.45.93-2.64a11.36,11.36,0,0,1-1.76-2.46H79.28l-1-4.51,2.52-1.21a11.48,11.48,0,0,1,.5-3l-2-2L81.73,429l2.64.92a11.41,11.41,0,0,1,2.46-1.75v-2.79l4.51-1,1.21,2.52Zm-1.29,6.51a5,5,0,1,0,6,3.72A5,5,0,0,0,91.25,433.32Z" transform="translate(-13.77 -14.61)"/></g><path class="cls-13" d="M453.91,386.13a17.22,17.22,0,0,1,4.48.75l3-3,5.9,3.69-1.39,4a16.77,16.77,0,0,1,2.63,3.7l4.21,0,1.56,6.79-3.79,1.82a17.07,17.07,0,0,1-.75,4.47l3,3-3.69,5.9-4-1.39a17.46,17.46,0,0,1-3.7,2.63l0,4.2-6.78,1.56-1.83-3.78a16.75,16.75,0,0,1-4.47-.76l-3,3-5.89-3.7,1.39-4a16.84,16.84,0,0,1-2.64-3.69H434l-1.56-6.78,3.79-1.82a17.22,17.22,0,0,1,.75-4.48l-3-3,3.69-5.9,4,1.39a16.8,16.8,0,0,1,3.69-2.63V383.9l6.78-1.56,1.82,3.79ZM452,395.92a7.46,7.46,0,1,0,8.95,5.6A7.46,7.46,0,0,0,452,395.92Z" transform="translate(-13.77 -14.61)"/><g class="cls-10"><path class="cls-13" d="M453.91,386.13a17.22,17.22,0,0,1,4.48.75l3-3,5.9,3.69-1.39,4a16.77,16.77,0,0,1,2.63,3.7l4.21,0,1.56,6.79-3.79,1.82a17.07,17.07,0,0,1-.75,4.47l3,3-3.69,5.9-4-1.39a17.46,17.46,0,0,1-3.7,2.63l0,4.2-6.78,1.56-1.83-3.78a16.75,16.75,0,0,1-4.47-.76l-3,3-5.89-3.7,1.39-4a16.84,16.84,0,0,1-2.64-3.69H434l-1.56-6.78,3.79-1.82a17.22,17.22,0,0,1,.75-4.48l-3-3,3.69-5.9,4,1.39a16.8,16.8,0,0,1,3.69-2.63V383.9l6.78-1.56,1.82,3.79ZM452,395.92a7.46,7.46,0,1,0,8.95,5.6A7.46,7.46,0,0,0,452,395.92Z" transform="translate(-13.77 -14.61)"/></g><polygon class="cls-6" points="125.01 324.71 357.78 323.15 364.27 468.7 123.25 466.64 125.01 324.71"/><path class="cls-14" d="M138.79,339.32l110.16-82a13.5,13.5,0,0,1,16,0l106.62,80.38" transform="translate(-13.77 -14.61)"/><g class="cls-15"><path class="cls-5" d="M138.79,339.32l110.16-82a13.5,13.5,0,0,1,16,0l106.62,80.38" transform="translate(-13.77 -14.61)"/></g><path class="cls-4" d="M137,481.26c-.29-.25,18.34-19,41.62-41.79s42.38-41.14,42.67-40.89-18.34,19-41.62,41.79S137.31,481.51,137,481.26Z" transform="translate(-13.77 -14.61)"/><path class="cls-4" d="M378,483.31c-.3.25-18.44-18.09-40.53-40.94s-39.75-41.59-39.45-41.83,18.44,18.08,40.53,40.95S378.34,483.07,378,483.31Z" transform="translate(-13.77 -14.61)"/><g class="cls-16"><polyline class="cls-17" points="357.78 323.15 240.9 409.03 125.01 324.71"/></g><polygon class="cls-18" points="136.73 332.66 136.37 265.8 340.19 263.58 342.49 333.93 240.88 407.9 136.73 332.66"/><path class="cls-4" d="M150.51,347.27s.66.45,1.91,1.35l5.53,4,21,15.13,75.81,54.66h-.26l101.57-74-.09.19c-.44-13.42-.9-27.5-1.37-41.83-.32-9.64-.63-19.18-.93-28.52l.26.23-203.82,2.13.16-.15c.08,21,.14,37.74.19,49.19,0,5.73,0,10.14,0,13.13v3.39c0,.76,0,1.15,0,1.15s0-.38,0-1.14,0-1.89,0-3.37c0-3-.06-7.39-.11-13.1-.08-11.47-.2-28.19-.35-49.25v-.15h.16L354,278h.25v.24c.3,9.34.62,18.87.93,28.52.47,14.32.93,28.4,1.36,41.83v.11l-.1.08L254.79,422.67l-.13.09-.13-.09-75.75-54.84-20.94-15.2-5.48-4C151.13,347.74,150.51,347.27,150.51,347.27Z" transform="translate(-13.77 -14.61)"/><path class="cls-19" d="M321.75,311.86c0,.13-31.17.41-69.61.62s-69.62.28-69.62.15,31.16-.41,69.62-.62S321.75,311.73,321.75,311.86Z" transform="translate(-13.77 -14.61)"/><path class="cls-19" d="M321.75,330.74c0,.13-31.17.41-69.61.63s-69.62.28-69.62.15,31.16-.41,69.62-.62S321.75,330.61,321.75,330.74Z" transform="translate(-13.77 -14.61)"/><path class="cls-19" d="M321.75,352.51c0,.13-31.17.41-69.61.63s-69.62.28-69.62.15,31.16-.41,69.62-.63S321.75,352.38,321.75,352.51Z" transform="translate(-13.77 -14.61)"/><path class="cls-19" d="M321.75,374.28c0,.13-29.73.4-66.41.61s-66.42.26-66.42.13,29.73-.4,66.42-.61S321.75,374.15,321.75,374.28Z" transform="translate(-13.77 -14.61)"/><path class="cls-19" d="M295.68,393.39a7.37,7.37,0,0,1-.81.05l-2.34.06-8.62.13-28.4.37c-11.1.17-21.15.23-28.42.24l-8.61,0-2.35,0a6.38,6.38,0,0,1-.81,0,4.29,4.29,0,0,1,.81-.06l2.34,0,8.61-.13,28.42-.38c11.09-.17,21.14-.23,28.41-.24l8.61,0,2.35,0A5.13,5.13,0,0,1,295.68,393.39Z" transform="translate(-13.77 -14.61)"/><path class="cls-19" d="M269.44,411.75c0,.13-6.64.24-14.84.24s-14.84-.11-14.84-.24,6.64-.23,14.84-.23S269.44,411.62,269.44,411.75Z" transform="translate(-13.77 -14.61)"/><ellipse class="cls-20" cx="317.87" cy="359.67" rx="24.62" ry="22.64"/><path class="cls-2" d="M334.77,363.74v18.82H331V366.67h-4.33v-2.93Z" transform="translate(-13.77 -14.61)"/><path class="cls-11" d="M122.49,79.54a14.15,14.15,0,0,1,3.73.63l2.47-2.49,4.91,3.08-1.15,3.3a14.69,14.69,0,0,1,2.19,3.08h3.5l1.3,5.65-3.15,1.52a14.15,14.15,0,0,1-.63,3.73l2.49,2.47-3.08,4.91-3.31-1.15a14.19,14.19,0,0,1-3.08,2.19l0,3.5-5.66,1.3-1.52-3.15a14.42,14.42,0,0,1-3.72-.63L115.33,110l-4.92-3.08,1.16-3.31a14.43,14.43,0,0,1-2.19-3.08h-3.51l-1.3-5.65,3.16-1.52a14,14,0,0,1,.63-3.72l-2.49-2.47L109,82.22l3.31,1.16a13.7,13.7,0,0,1,3.07-2.19V77.68l5.65-1.3,1.52,3.16Zm-1.62,8.16a6.22,6.22,0,1,0,7.46,4.66A6.22,6.22,0,0,0,120.87,87.7Z" transform="translate(-13.77 -14.61)"/><g class="cls-12"><path class="cls-11" d="M122.49,79.54a14.15,14.15,0,0,1,3.73.63l2.47-2.49,4.91,3.08-1.15,3.3a14.69,14.69,0,0,1,2.19,3.08h3.5l1.3,5.65-3.15,1.52a14.15,14.15,0,0,1-.63,3.73l2.49,2.47-3.08,4.91-3.31-1.15a14.19,14.19,0,0,1-3.08,2.19l0,3.5-5.66,1.3-1.52-3.15a14.42,14.42,0,0,1-3.72-.63L115.33,110l-4.92-3.08,1.16-3.31a14.43,14.43,0,0,1-2.19-3.08h-3.51l-1.3-5.65,3.16-1.52a14,14,0,0,1,.63-3.72l-2.49-2.47L109,82.22l3.31,1.16a13.7,13.7,0,0,1,3.07-2.19V77.68l5.65-1.3,1.52,3.16Zm-1.62,8.16a6.22,6.22,0,1,0,7.46,4.66A6.22,6.22,0,0,0,120.87,87.7Z" transform="translate(-13.77 -14.61)"/></g><path class="cls-11" d="M442.58,113.64a17.65,17.65,0,0,1,3.9,2.74l4.17-1.48,3.92,6.18-3.12,3.14a17.94,17.94,0,0,1,.81,4.7l4,1.9-1.6,7.14h-4.42a18.28,18.28,0,0,1-2.75,3.9L449,146,442.79,150l-3.14-3.12a18.37,18.37,0,0,1-4.7.82l-1.89,4-7.14-1.6v-4.42a18,18,0,0,1-3.9-2.75l-4.17,1.48-3.92-6.18L417,135a18.09,18.09,0,0,1-.81-4.7l-4-1.9,1.6-7.14h4.42a18.28,18.28,0,0,1,2.75-3.9l-1.48-4.17,6.18-3.92,3.14,3.13a17.55,17.55,0,0,1,4.7-.82l1.89-4,7.14,1.61v4.42Zm-6.29,8.4a7.85,7.85,0,1,0,5.94,9.38A7.85,7.85,0,0,0,436.29,122Z" transform="translate(-13.77 -14.61)"/><path class="cls-21" d="M195.91,101.08a4.85,4.85,0,1,1-4.85-4.72A4.78,4.78,0,0,1,195.91,101.08Z" transform="translate(-13.77 -14.61)"/><polygon class="cls-22" points="182.07 129.51 177.29 134.29 172.51 129.51 169.77 132.25 174.55 137.03 169.77 141.81 172.51 144.55 177.29 139.76 182.07 144.55 184.81 141.81 180.03 137.03 184.81 132.25 182.07 129.51"/><polygon class="cls-6" points="451.86 57.1 447.08 61.88 442.3 57.1 439.56 59.84 444.34 64.62 439.56 69.4 442.3 72.14 447.08 67.35 451.86 72.14 454.6 69.4 449.81 64.62 454.6 59.84 451.86 57.1"/><path class="cls-21" d="M394.73,123.34a4.06,4.06,0,1,1-4.05-4.1A4.07,4.07,0,0,1,394.73,123.34Z" transform="translate(-13.77 -14.61)"/><path class="cls-21" d="M300.32,67.61a4.06,4.06,0,1,1-4.06-4.1A4.08,4.08,0,0,1,300.32,67.61Z" transform="translate(-13.77 -14.61)"/><polygon class="cls-22" points="439.48 287.2 434.7 291.98 429.92 287.2 427.18 289.94 431.96 294.72 427.18 299.5 429.92 302.24 434.7 297.45 439.48 302.24 442.22 299.5 437.44 294.72 442.22 289.94 439.48 287.2"/><path class="cls-21" d="M376.4,268.33a4.85,4.85,0,1,1-4.85-4.72A4.78,4.78,0,0,1,376.4,268.33Z" transform="translate(-13.77 -14.61)"/><polygon class="cls-22" points="92.31 279.01 87.53 283.79 82.75 279.01 80.01 281.75 84.79 286.53 80.01 291.31 82.75 294.05 87.53 289.27 92.31 294.05 95.05 291.31 90.27 286.53 95.05 281.75 92.31 279.01"/><path class="cls-21" d="M129.78,408a4.85,4.85,0,1,1-4.85-4.72A4.78,4.78,0,0,1,129.78,408Z" transform="translate(-13.77 -14.61)"/><path class="cls-21" d="M70.6,322.68A4.85,4.85,0,1,1,65.75,318,4.78,4.78,0,0,1,70.6,322.68Z" transform="translate(-13.77 -14.61)"/><path class="cls-21" d="M417.08,471.8a4.85,4.85,0,1,1-4.85-4.72A4.78,4.78,0,0,1,417.08,471.8Z" transform="translate(-13.77 -14.61)"/></svg>