<svg xmlns="http://www.w3.org/2000/svg" viewBox="0 0 465.71 477.94"><defs><style>.cls-1{fill:#e5e0fc;}.cls-2,.cls-3{fill:#b4db9d;}.cls-10,.cls-11,.cls-17,.cls-18,.cls-2,.cls-5{stroke:#000;}.cls-15,.cls-16,.cls-17,.cls-18,.cls-2,.cls-3,.cls-5{stroke-miterlimit:10;}.cls-10,.cls-15,.cls-2,.cls-3,.cls-5,.cls-6,.cls-7{stroke-width:0.75px;}.cls-12,.cls-13,.cls-14,.cls-15,.cls-3,.cls-4,.cls-6,.cls-7,.cls-8,.cls-9{stroke:#263238;}.cls-15,.cls-16,.cls-17,.cls-18,.cls-4,.cls-9{fill:none;}.cls-10,.cls-11,.cls-12,.cls-13,.cls-14,.cls-16,.cls-18,.cls-4,.cls-6,.cls-7,.cls-8,.cls-9{stroke-linecap:round;}.cls-10,.cls-11,.cls-12,.cls-13,.cls-14,.cls-4,.cls-6,.cls-7,.cls-8,.cls-9{stroke-linejoin:round;}.cls-5{fill:#ffe3a7;}.cls-10,.cls-11,.cls-14,.cls-6{fill:#fe9595;}.cls-13,.cls-7{fill:#fff;}.cls-12,.cls-8{fill:#c7addc;}.cls-8{stroke-width:0.25px;}.cls-17,.cls-9{stroke-width:0.5px;}.cls-16{stroke:#92e3a9;}</style></defs><title>7542091</title><g id="Background_Simple" data-name="Background Simple"><path class="cls-1" d="M149.46,22.29C119.53,35.21,96.88,56.86,76,81.8a328.49,328.49,0,0,0-46.16,73.4c-12.21,26.43-19.09,58.57-1.07,84,11.16,15.79,27.7,22.94,43.09,33.45,2.84,1.93,6.83,3.92,6.8,7.78,0,5.87-10.8,12.12-14.49,15.47-9.12,8.26-17.94,16.9-25.53,26.61-11.11,14.21-19.59,31-21.17,49-1.73,19.58,4.93,39.34,16.17,55.46,16.34,23.47,42.24,41.75,69.32,50.6,14.48,4.73,29.84,6.14,45,5.66a229,229,0,0,0,45.65-6.17c23.13-5.5,47.23-14.26,71.24-9,25.74,5.6,50.88,12.23,77,16.18,33.52,5.07,81.59,11.53,109-13.13,19.67-17.71,28.87-46.31,31.33-71.92,1.46-15.19,1.17-32.28-3.89-46.85-6.86-19.73-19.36-37.9-29.19-56.22-6.08-11.32-11.44-23.35-13.59-36.09-2.38-14.06,1.84-23.21,8.69-35.31,24.48-43.24,44.48-105.51,18.5-152.29-8.16-14.69-23.95-21.54-40.5-22.09-14.5-.49-28.77,3.59-42.37,8.64-25.58,9.5-66,33.72-93,17.54-15.58-9.33-21.53-28.7-32.49-42.29-11.79-14.62-30-22.06-48.44-23.06C186.9,10.14,166.75,14.82,149.46,22.29Z" transform="translate(-17.15 -11.03)"/></g><g id="Plants"><path class="cls-2" d="M340.09,301.81c3,3.15,12,6.76,12,6.76s.57-6.67.55-7.1c-.21-4.94-3.53-14.35-8.87-15.82a6.55,6.55,0,0,0-8,5.49C335.08,295,337.56,299.12,340.09,301.81Z" transform="translate(-17.15 -11.03)"/><path class="cls-2" d="M429.66,342.29c0,.08,4.15-5.25,4.37-5.62,2.55-4.23,5-13.92,1.33-18.08a6.54,6.54,0,0,0-9.74.13c-2.67,2.86-2.88,7.67-2.25,11.3C424.12,334.29,429.65,342.28,429.66,342.29Z" transform="translate(-17.15 -11.03)"/><path class="cls-2" d="M470.13,321.26c-4.83-2.7-13.8,1.68-17.42,5-.31.29-4.68,5.4-4.59,5.44l.11.05c-1.42.68-2.94,1.42-4.58,2.27-3,1.59-6.41,3.41-10,5.65a117.26,117.26,0,0,0-11.15,7.74,86.26,86.26,0,0,0-11.11,10.36,1.71,1.71,0,0,0-.11.14c.66-1.48,2.37-5.68,2.47-6,1.33-4.76,1.12-14.74-3.49-17.8a6.55,6.55,0,0,0-9.37,2.71c-1.82,3.46-.75,8.15.82,11.49,1.77,3.77,8.65,9.62,9.2,10.08a116,116,0,0,0-9.25,12.41c-1.64,2.51-3.22,5.1-4.78,7.71.54-1.3,1-2.46,1-2.63,1.33-4.76,1.12-14.74-3.49-17.8a6.56,6.56,0,0,0-9.37,2.71c-1.82,3.46-.75,8.15.82,11.49s7.36,8.5,8.9,9.83c-.59,1-1.18,2-1.76,3-2.79,4.85-5.55,9.7-8.4,14.37-1,1.65-2.06,3.24-3.1,4.83.47-1.15.85-2.13.9-2.28,1.33-4.76,1.12-14.74-3.49-17.8A6.55,6.55,0,0,0,369.6,387c-1.82,3.45-.75,8.15.82,11.49s6.8,8,8.62,9.58c-1.12,1.6-2.23,3.2-3.39,4.7-.81,1-1.53,2-2.4,3l-2.51,2.89c-1.66,1.77-3.36,3.62-5,5.31-1.15,1.18-2.27,2.29-3.39,3.41,1-1.62,2.95-4.86,3.08-5.14a25.35,25.35,0,0,0,1.71-12.72,7.46,7.46,0,0,0,.49-1.37,6.55,6.55,0,0,0-5.19-8.25c-5.48-.79-12.28,6.52-14.45,11-.13.26-1.2,3.26-1.84,5.16.21-1.17.42-2.31.62-3.53.41-2.39.75-4.8,1.13-7.38.14-1.25.27-2.52.41-3.8s.18-2.62.28-3.95c.16-3.07.17-6.2.12-9.35,2.1.36,9.57,1.51,13.16.59s7.87-3.09,9.38-6.69a6.55,6.55,0,0,0-3.88-8.94c-5.3-1.61-13.13,4.58-15.94,8.64-.18.26-1.87,3.4-2.77,5.14-.05-1.89-.08-3.78-.2-5.69-.32-5.52-.81-11.1-1.29-16.67-.14-1.7-.26-3.4-.4-5.1.75.13,9.6,1.69,13.62.66,3.58-.92,7.88-3.09,9.38-6.69a6.54,6.54,0,0,0-3.88-8.94c-5.29-1.61-13.12,4.58-15.94,8.64-.21.31-2.64,4.83-3.2,6-.29-3.75-.54-7.49-.64-11.19a115.15,115.15,0,0,1,.5-14.95c.35.06,9.58,1.74,13.7.68,3.58-.92,7.87-3.09,9.38-6.69a6.55,6.55,0,0,0-3.88-8.94c-5.3-1.61-13.13,4.58-15.94,8.64-.19.27-2,3.72-2.88,5.38l-.31-.1a84.71,84.71,0,0,1,3.21-14.7c.79-2.65,1.7-5.14,2.63-7.54,1.69.49,9.43,2.63,13.24,2.09,3.65-.52,8.16-2.2,10.06-5.62a6.55,6.55,0,0,0-2.88-9.31c-5.09-2.18-13.55,3.11-16.79,6.84-.18.2-1.74,2.46-2.86,4.13.44-1.08.87-2.2,1.31-3.23,1.65-3.84,3.4-7.26,5-10.28.9-1.71,1.76-3.24,2.57-4.66,1.91-.38,9.57-2,12.64-4.23s6.24-5.72,6.34-9.62a6.56,6.56,0,0,0-6.84-6.95c-5.52.42-10.59,9-11.75,13.82-.1.41-.93,7.09-.83,7.07l.12,0c-.81,1.36-1.67,2.81-2.57,4.43-1.64,3-3.46,6.38-5.2,10.21a113.81,113.81,0,0,0-5,12.61,84.73,84.73,0,0,0-3.56,14.76c0,.06,0,.12,0,.18-.26-1.6-1.15-6.05-1.26-6.38-1.51-4.7-7.19-12.91-12.73-12.92a6.56,6.56,0,0,0-6.32,7.43c.39,3.88,3.88,7.21,7,9.13,3.55,2.17,12.51,3.25,13.23,3.33a115.3,115.3,0,0,0-.87,15.45c0,3,.13,6,.27,9.07-.27-1.37-.52-2.6-.58-2.77-1.51-4.7-7.19-12.91-12.73-12.92a6.54,6.54,0,0,0-6.31,7.43c.38,3.88,3.87,7.21,7,9.13S343,360.76,345,361c.07,1.16.12,2.32.2,3.49.35,5.58.72,11.15.92,16.62.07,1.93.07,3.84.08,5.74-.25-1.22-.46-2.25-.51-2.4-1.51-4.71-7.2-12.91-12.73-12.92a6.55,6.55,0,0,0-6.32,7.42c.39,3.89,3.87,7.21,7,9.14s10.08,2.92,12.48,3.23c-.05,2-.1,3.91-.24,5.79-.12,1.29-.15,2.54-.35,3.82s-.33,2.54-.5,3.79c-.4,2.4-.8,4.88-1.26,7.21-.3,1.62-.62,3.16-.94,4.71-.05-1.92-.22-5.68-.27-6-.78-4.88-5.16-13.85-10.63-14.7a6.54,6.54,0,0,0-7.36,6.38c-.21,3.9,2.73,7.72,5.55,10.09,3.11,2.62,11.46,5,12.5,5.28-.53,2.57-1.08,5.06-1.63,7.41-1.87,8.05-3.73,14.69-5.11,19.35l3.46,1.47.08-.31c1.29-4.75,3.05-11.56,4.78-19.8.55-2.61,1.09-5.4,1.61-8.28a70.2,70.2,0,0,0,8.36-.31c1.4,3.94,6.67,10.08,7.36,10.87-1.86,1.85-3.69,3.63-5.44,5.28-6,5.68-11.22,10.2-14.94,13.32l3.79,1.62c3.55-3.16,8.19-7.41,13.43-12.58,1.9-1.87,3.89-3.9,5.91-6,.87.61,8,5.54,12,6.27,3.63.66,8.44.5,11.31-2.15a6.54,6.54,0,0,0,.23-9.74c-4.14-3.68-13.84-1.34-18.1,1.17-.25.15-2.8,2.06-4.38,3.29.82-.86,1.63-1.7,2.46-2.6,1.67-1.77,3.28-3.59,5-5.53l2.44-2.94c.84-1,1.6-2.09,2.41-3.15,1.83-2.47,3.56-5.07,5.25-7.73,1.56,1.46,7.15,6.54,10.66,7.75s8.27,1.77,11.51-.4a6.55,6.55,0,0,0,1.7-9.6c-3.53-4.26-13.48-3.42-18.07-1.58-.28.11-3.43,1.8-5.14,2.76,1-1.61,2-3.21,3-4.86,2.77-4.78,5.44-9.71,8.11-14.61.82-1.51,1.66-3,2.49-4.48.55.52,7.07,6.71,11,8.06,3.49,1.21,8.27,1.77,11.52-.4a6.55,6.55,0,0,0,1.69-9.6c-3.53-4.26-13.48-3.42-18.06-1.58-.35.13-4.87,2.57-6,3.24,1.83-3.28,3.68-6.54,5.64-9.67a113.83,113.83,0,0,1,8.66-12.2c.26.24,7,6.73,11.05,8.12,3.49,1.21,8.27,1.77,11.52-.41a6.54,6.54,0,0,0,1.69-9.59c-3.53-4.27-13.47-3.42-18.06-1.58-.3.12-3.75,2-5.37,2.88l-.2-.24a84.22,84.22,0,0,1,10.78-10.49c2.12-1.78,4.25-3.35,6.36-4.84,1.14,1.34,6.41,7.4,9.89,9.05,3.33,1.58,8,2.66,11.48.86a6.55,6.55,0,0,0,2.75-9.36c-3.05-4.62-13-4.87-17.79-3.55-.26.07-2.81,1.09-4.66,1.86,1-.66,1.94-1.35,2.87-2,3.5-2.3,6.84-4.19,9.82-5.84,1.7-.93,3.25-1.73,4.72-2.47,1.8.73,9.1,3.58,12.88,3.45s8.35-1.33,10.59-4.53A6.56,6.56,0,0,0,470.13,321.26Z" transform="translate(-17.15 -11.03)"/><path class="cls-3" d="M194.19,296.49c-3.64,2.35-13.27,3.69-13.27,3.7s1-6.62,1.16-7c1.39-4.74,6.86-13.09,12.4-13.24a6.56,6.56,0,0,1,6.5,7.27C200.69,291.08,197.29,294.49,194.19,296.49Z" transform="translate(-17.15 -11.03)"/><path class="cls-3" d="M97.54,314.35c-.08.07-2.78-6.09-2.9-6.5-1.46-4.72-1.5-14.7,3-17.88a6.56,6.56,0,0,1,9.43,2.47c1.91,3.41,1,8.13-.52,11.51C104.83,307.92,97.55,314.35,97.54,314.35Z" transform="translate(-17.15 -11.03)"/><path class="cls-3" d="M63.28,284.25c5.33-1.47,13,4.93,15.71,9.06.23.36,3.25,6.37,3.15,6.38l-.12,0c1.22,1,2.51,2.09,3.9,3.3,2.55,2.27,5.41,4.85,8.33,7.87a116.38,116.38,0,0,1,9,10.19,86.69,86.69,0,0,1,8.31,12.72l.07.16c-.28-1.59-.94-6.08-.95-6.43-.16-4.94,2.44-14.58,7.65-16.45a6.55,6.55,0,0,1,8.44,4.87c.94,3.8-1.22,8.1-3.54,11-2.62,3.24-10.7,7.27-11.34,7.59a116.77,116.77,0,0,1,6,14.26c1,2.84,1.91,5.73,2.79,8.63-.2-1.38-.38-2.63-.38-2.8-.16-4.94,2.44-14.58,7.65-16.45a6.55,6.55,0,0,1,8.44,4.87c.94,3.8-1.22,8.1-3.54,11s-9.18,6.48-11,7.4c.33,1.12.67,2.24,1,3.36,1.55,5.37,3.07,10.75,4.72,16,.58,1.84,1.22,3.63,1.85,5.43-.18-1.23-.32-2.27-.33-2.44-.15-4.94,2.44-14.57,7.65-16.44a6.56,6.56,0,0,1,8.45,4.87c.94,3.79-1.23,8.09-3.55,11s-8.51,6.14-10.66,7.24c.7,1.82,1.4,3.64,2.17,5.38.55,1.17,1,2.33,1.61,3.47s1.17,2.28,1.74,3.41c1.19,2.12,2.4,4.32,3.61,6.36.83,1.43,1.65,2.77,2.47,4.12-.6-1.82-1.7-5.42-1.76-5.73a25.45,25.45,0,0,1,1.39-12.76,7,7,0,0,1-.15-1.44,6.55,6.55,0,0,1,7-6.77c5.51.55,10.36,9.27,11.4,14.1.06.29.38,3.45.55,5.45.08-1.19.14-2.35.24-3.57.18-2.43.42-4.84.68-7.44.16-1.25.33-2.51.5-3.79s.46-2.59.68-3.9c.58-3,1.31-6.06,2.12-9.1-2.12-.16-9.65-.83-12.92-2.59s-6.9-4.88-7.5-8.74A6.54,6.54,0,0,1,150.7,359c5.52-.29,11.64,7.59,13.4,12.21.11.29,1,3.75,1.46,5.65.5-1.82,1-3.65,1.55-5.48,1.64-5.28,3.46-10.58,5.25-15.87.55-1.62,1.07-3.24,1.61-4.86-.76-.05-9.73-.65-13.38-2.62-3.26-1.75-6.91-4.88-7.51-8.74a6.55,6.55,0,0,1,5.91-7.75c5.53-.3,11.64,7.59,13.41,12.21.13.35,1.4,5.32,1.67,6.6,1.17-3.57,2.31-7.14,3.29-10.7a115.92,115.92,0,0,0,3.1-14.64c-.36,0-9.72-.61-13.46-2.62-3.26-1.75-6.91-4.88-7.51-8.74a6.56,6.56,0,0,1,5.91-7.76c5.53-.29,11.64,7.6,13.41,12.22.11.3,1.09,4.09,1.51,5.9h.31a83.21,83.21,0,0,0,.41-15c-.13-2.77-.42-5.4-.75-8-1.76.07-9.78.3-13.35-1.14s-7.4-4.09-8.42-7.86a6.55,6.55,0,0,1,5-8.36c5.46-.89,12.41,6.27,14.67,10.67.12.24,1.1,2.81,1.79,4.69-.17-1.15-.33-2.34-.51-3.44-.68-4.13-1.55-7.87-2.36-11.18-.47-1.88-.93-3.56-1.38-5.14-1.76-.83-8.8-4.26-11.26-7.13s-4.68-7.05-3.85-10.86a6.56,6.56,0,0,1,8.31-5.11c5.26,1.73,8.12,11.29,8.1,16.23,0,.43-.8,7.1-.89,7.06l-.11,0c.46,1.51.94,3.13,1.43,4.91.88,3.29,1.84,7,2.61,11.16a115.72,115.72,0,0,1,1.85,13.44,84.86,84.86,0,0,1-.08,15.19c0,.06,0,.12,0,.18.64-1.49,2.56-5.59,2.75-5.89,2.59-4.21,10.07-10.82,15.45-9.5a6.56,6.56,0,0,1,4.36,8.72c-1.31,3.68-5.49,6.08-9,7.19-4,1.25-12.93.16-13.64.07a117.19,117.19,0,0,1-2.86,15.2c-.74,2.92-1.57,5.83-2.44,8.75.6-1.27,1.14-2.4,1.23-2.56,2.6-4.2,10.08-10.81,15.45-9.49a6.55,6.55,0,0,1,4.36,8.72c-1.31,3.68-5.48,6.08-9,7.19s-11.23.35-13.26.11c-.34,1.12-.68,2.23-1,3.34-1.67,5.34-3.37,10.66-4.87,15.93-.54,1.85-1,3.7-1.45,5.55.53-1.13,1-2.08,1.07-2.21,2.59-4.21,10.07-10.82,15.45-9.5a6.56,6.56,0,0,1,4.36,8.72c-1.31,3.68-5.49,6.08-9,7.19s-10.48.42-12.89.15c-.42,1.91-.84,3.82-1.15,5.68-.19,1.28-.46,2.5-.58,3.79s-.28,2.55-.42,3.8c-.18,2.43-.38,4.93-.5,7.3-.1,1.65-.15,3.22-.22,4.8.51-1.85,1.58-5.46,1.7-5.75,1.93-4.55,8.32-12.22,13.84-11.73a6.55,6.55,0,0,1,5.62,8c-.73,3.84-4.5,6.84-7.81,8.47-3.65,1.8-12.31,2.1-13.4,2.13-.09,2.62-.16,5.17-.19,7.58-.11,8.27.11,15.16.33,20l-3.71.6v-.32c-.12-4.92-.2-11.94.1-20.37.09-2.66.24-5.5.41-8.42a70.14,70.14,0,0,1-8-2.3c-2.3,3.49-8.89,8.19-9.75,8.79,1.37,2.24,2.72,4.41,4,6.43,4.47,7,8.46,12.59,11.32,16.51l-4.07.66c-2.69-3.91-6.18-9.15-10-15.43-1.4-2.26-2.84-4.72-4.3-7.25-1,.39-9.13,3.46-13.19,3.21-3.69-.23-8.32-1.54-10.48-4.79a6.56,6.56,0,0,1,2.12-9.52c4.89-2.58,13.75,2,17.29,5.47.21.21,2.22,2.67,3.47,4.25-.59-1-1.18-2-1.77-3.11-1.2-2.12-2.32-4.27-3.55-6.58l-1.66-3.44c-.59-1.14-1.06-2.41-1.59-3.63-1.19-2.84-2.25-5.78-3.25-8.76-1.86,1-8.51,4.63-12.2,5s-8.46-.26-11.09-3.15a6.56,6.56,0,0,1,.66-9.73c4.44-3.29,13.9-.09,17.92,2.79.25.18,2.9,2.57,4.33,3.91-.59-1.79-1.19-3.59-1.73-5.42-1.55-5.31-3-10.73-4.38-16.13-.44-1.66-.89-3.3-1.34-4.95-.66.38-8.47,4.82-12.61,5.2-3.67.33-8.45-.26-11.08-3.15a6.56,6.56,0,0,1,.65-9.73c4.45-3.29,13.91-.09,17.92,2.79.3.22,4.11,3.67,5,4.59-1-3.63-2-7.23-3.16-10.75a116,116,0,0,0-5.49-13.91c-.31.17-8.44,4.85-12.68,5.24-3.67.33-8.45-.26-11.08-3.15a6.56,6.56,0,0,1,.65-9.73c4.45-3.29,13.91-.09,17.92,2.79.27.19,3.17,2.81,4.52,4.09l.25-.19a84.51,84.51,0,0,0-8-12.77c-1.64-2.23-3.33-4.27-5-6.21-1.42,1-8,5.64-11.76,6.41s-8.43.67-11.36-1.91a6.55,6.55,0,0,1-.42-9.74c4.06-3.76,13.81-1.62,18.11.8.24.13,2.47,1.74,4.08,2.93-.77-.87-1.56-1.78-2.32-2.6-2.84-3.07-5.63-5.7-8.13-8-1.43-1.3-2.74-2.46-4-3.52-1.92.28-9.69,1.3-13.33.26s-7.79-3.29-9.2-6.93A6.55,6.55,0,0,1,63.28,284.25Z" transform="translate(-17.15 -11.03)"/></g><g id="Floor"><path class="cls-4" d="M485.2,456.48" transform="translate(-17.15 -11.03)"/><path class="cls-4" d="M471.8,456.48" transform="translate(-17.15 -11.03)"/><path class="cls-4" d="M13.55,456.48" transform="translate(-17.15 -11.03)"/><path class="cls-5" d="M105,407.27a29.69,29.69,0,0,1,7.26-3.15l1.5-7.19,12.14-.21,1.75,7.13a29.51,29.51,0,0,1,7.37,2.9l6.13-4,8.74,8.44-3.8,6.27a29.55,29.55,0,0,1,3.15,7.27l7.19,1.49.21,12.15-7.13,1.75a29.65,29.65,0,0,1-2.89,7.36l4,6.14-8.44,8.74-6.27-3.8a29.76,29.76,0,0,1-7.27,3.15l-1.49,7.19-12.15.21L113.31,462a29.6,29.6,0,0,1-7.37-2.9l-6.14,4-8.74-8.44,3.81-6.28a29.73,29.73,0,0,1-3.16-7.26l-7.19-1.49-.21-12.15,7.13-1.75a29.68,29.68,0,0,1,2.9-7.36l-4-6.14,8.43-8.74,6.28,3.8Zm6.47,16.18a13,13,0,1,0,18.43-.32A13,13,0,0,0,111.5,423.45Z" transform="translate(-17.15 -11.03)"/></g><g id="Clock"><circle class="cls-6" cx="369.35" cy="95.29" r="33.85"/><circle class="cls-7" cx="386.5" cy="106.32" r="29.94" transform="translate(-31.19 79.42) rotate(-13.11)"/><circle class="cls-8" cx="369.35" cy="95.29" r="2.86"/><polyline class="cls-7" points="379.78 100.39 369.36 95.29 351.98 114.28"/><path class="cls-9" d="M386.71,78.94q0,3.42-.1,6.84" transform="translate(-17.15 -11.03)"/><path class="cls-9" d="M398.81,89.81c1.64-1.24,3.25-2.51,4.85-3.8" transform="translate(-17.15 -11.03)"/><path class="cls-9" d="M406.32,107.26a59.29,59.29,0,0,0,6.24.72" transform="translate(-17.15 -11.03)"/><path class="cls-9" d="M400.78,119.84l3.2,4.71" transform="translate(-17.15 -11.03)"/><path class="cls-9" d="M386.77,128.35c-.06,1.8,0,3.61.06,5.4" transform="translate(-17.15 -11.03)"/><path class="cls-9" d="M360,104.71h6.89a1.18,1.18,0,0,0-1.23,0" transform="translate(-17.15 -11.03)"/><path class="cls-9" d="M366.76,87.63l3.68,3.52" transform="translate(-17.15 -11.03)"/><rect class="cls-2" x="45.26" y="128.77" width="25.83" height="25.83"/><rect class="cls-10" x="379.37" y="244.72" width="25.83" height="25.83"/><path class="cls-11" d="M409.22,260.88c-.14,5.22-.28,10.71-.28,16" transform="translate(-17.15 -11.03)"/><path class="cls-11" d="M401.91,268.87c5,0,10.06-.18,15.17-.06" transform="translate(-17.15 -11.03)"/></g><g id="Form"><rect class="cls-12" x="113.2" y="103.83" width="250.94" height="333.47" rx="6.08"/><rect class="cls-13" x="125.91" y="111.36" width="224.56" height="313.11"/><path class="cls-14" d="M199.46,97.18h86a8.65,8.65,0,0,1,8.65,8.65v7.86a0,0,0,0,1,0,0H190.81a0,0,0,0,1,0,0v-7.86A8.65,8.65,0,0,1,199.46,97.18Z"/><line class="cls-15" x1="312.55" y1="158.56" x2="329.99" y2="158.56"/><line class="cls-15" x1="191.61" y1="158.56" x2="299.05" y2="158.56"/><line class="cls-15" x1="286.68" y1="170.72" x2="329.99" y2="170.72"/><line class="cls-15" x1="220.3" y1="170.72" x2="274.86" y2="170.72"/><line class="cls-15" x1="191.61" y1="170.72" x2="210.18" y2="170.72"/><line class="cls-15" x1="245.61" y1="182.89" x2="329.99" y2="182.89"/><line class="cls-15" x1="191.61" y1="182.89" x2="227.05" y2="182.89"/><ellipse class="cls-15" cx="158.9" cy="170.72" rx="14.62" ry="13.18"/><polyline class="cls-16" points="152.5 168.89 156.47 176.41 171.49 160.9"/><line class="cls-15" x1="312.55" y1="204.24" x2="329.99" y2="204.24"/><line class="cls-15" x1="191.61" y1="204.24" x2="299.05" y2="204.24"/><line class="cls-15" x1="286.68" y1="216.41" x2="329.99" y2="216.41"/><line class="cls-15" x1="220.3" y1="216.41" x2="274.86" y2="216.41"/><line class="cls-15" x1="191.61" y1="216.41" x2="210.18" y2="216.41"/><line class="cls-15" x1="245.61" y1="228.57" x2="329.99" y2="228.57"/><line class="cls-15" x1="191.61" y1="228.57" x2="227.05" y2="228.57"/><ellipse class="cls-15" cx="158.9" cy="216.41" rx="14.62" ry="13.18"/><polyline class="cls-16" points="152.5 214.59 156.47 222.13 171.49 206.58"/><line class="cls-15" x1="312.34" y1="248.36" x2="329.77" y2="248.36"/><line class="cls-15" x1="191.4" y1="248.36" x2="298.84" y2="248.36"/><line class="cls-15" x1="286.46" y1="260.52" x2="329.77" y2="260.52"/><line class="cls-15" x1="220.09" y1="260.52" x2="274.65" y2="260.52"/><line class="cls-15" x1="191.4" y1="260.52" x2="209.96" y2="260.52"/><line class="cls-15" x1="245.4" y1="272.68" x2="329.77" y2="272.68"/><line class="cls-15" x1="191.4" y1="272.68" x2="226.84" y2="272.68"/><path class="cls-15" d="M190.45,271.55c0-7.28-6.54-13.18-14.62-13.18s-14.63,5.9-14.63,13.18,6.55,13.18,14.63,13.18S190.45,278.83,190.45,271.55Z" transform="translate(-17.15 -11.03)"/><polyline class="cls-16" points="152.29 258.79 156.26 266.41 171.28 250.7"/><line class="cls-15" x1="312.34" y1="294.04" x2="329.77" y2="294.04"/><line class="cls-15" x1="191.4" y1="294.04" x2="298.84" y2="294.04"/><line class="cls-15" x1="286.46" y1="306.2" x2="329.77" y2="306.2"/><line class="cls-15" x1="220.09" y1="306.2" x2="274.65" y2="306.2"/><line class="cls-15" x1="191.4" y1="306.2" x2="209.96" y2="306.2"/><line class="cls-15" x1="245.4" y1="318.37" x2="329.77" y2="318.37"/><line class="cls-15" x1="191.4" y1="318.37" x2="226.84" y2="318.37"/><ellipse class="cls-15" cx="158.68" cy="306.2" rx="14.63" ry="13.18"/><polyline class="cls-16" points="152.29 304.5 156.26 312.13 171.28 296.38"/><line class="cls-15" x1="312.55" y1="338.16" x2="329.99" y2="338.16"/><line class="cls-15" x1="191.61" y1="338.16" x2="299.05" y2="338.16"/><line class="cls-15" x1="286.68" y1="350.32" x2="329.99" y2="350.32"/><line class="cls-15" x1="220.3" y1="350.32" x2="274.86" y2="350.32"/><line class="cls-15" x1="191.61" y1="350.32" x2="210.18" y2="350.32"/><line class="cls-15" x1="245.61" y1="362.49" x2="329.99" y2="362.49"/><line class="cls-15" x1="191.61" y1="362.49" x2="227.05" y2="362.49"/><ellipse class="cls-15" cx="158.9" cy="350.32" rx="14.62" ry="13.18"/><polyline class="cls-16" points="152.5 348.51 156.47 356.05 171.49 340.5"/><circle class="cls-17" cx="413" cy="396.81" r="5.53"/><circle class="cls-17" cx="456.15" cy="340.5" r="5.53"/><circle class="cls-17" cx="67.16" cy="373.15" r="5.53"/><circle class="cls-17" cx="76.61" cy="260.52" r="5.53"/><circle class="cls-17" cx="31.69" cy="296.38" r="5.53"/><path class="cls-17" d="M335.63,99.21a5.53,5.53,0,1,1-5.53-5.52A5.54,5.54,0,0,1,335.63,99.21Z" transform="translate(-17.15 -11.03)"/><circle class="cls-17" cx="413" cy="66.97" r="5.53"/><path class="cls-18" d="M67.2,150.17l6.34,10.68a40.88,40.88,0,0,1,9.77-15.71" transform="translate(-17.15 -11.03)"/></g></svg>