<svg xmlns="http://www.w3.org/2000/svg" viewBox="0 0 465.71 477.94"><defs><style>.cls-1,.cls-2{fill:#e5e0fc;}.cls-2{opacity:0.7;}.cls-3{fill:#767285;}.cls-10,.cls-11,.cls-13,.cls-14,.cls-15,.cls-16,.cls-17,.cls-18,.cls-19,.cls-3,.cls-4,.cls-5,.cls-6,.cls-7,.cls-8,.cls-9{stroke:#000;stroke-miterlimit:10;}.cls-3,.cls-4,.cls-5,.cls-7,.cls-8{stroke-width:0.75px;}.cls-4{fill:#aa96f3;}.cls-10,.cls-5,.cls-9{fill:#fff;}.cls-15,.cls-6{fill:#ffe3a7;}.cls-13,.cls-14,.cls-18,.cls-19,.cls-6,.cls-9{stroke-width:0.5px;}.cls-14,.cls-17,.cls-7{fill:none;}.cls-7{stroke-linecap:round;}.cls-16,.cls-19,.cls-8{fill:#fe9595;}.cls-10,.cls-11,.cls-15,.cls-16,.cls-17{stroke-width:0.25px;}.cls-11,.cls-13{fill:#b4db9d;}.cls-12{fill:#968fb0;}.cls-18{fill:#cfcae3;}</style></defs><title>4904576</title><g id="OBJECTS"><path class="cls-1" d="M150.4,22.29C120.48,35.21,97.83,56.86,76.9,81.8a328.13,328.13,0,0,0-46.16,73.4c-12.21,26.43-19.09,58.57-1.07,84,11.16,15.79,27.7,22.94,43.09,33.45,2.84,1.93,6.82,3.92,6.8,7.78,0,5.87-10.8,12.12-14.5,15.47-9.11,8.26-17.94,16.9-25.52,26.61-11.12,14.21-19.59,31-21.18,49C16.64,391.13,23.3,410.89,34.53,427c16.35,23.47,42.24,41.75,69.33,50.6,14.48,4.73,29.84,6.14,45,5.66a229,229,0,0,0,45.66-6.17c23.12-5.5,47.23-14.26,71.24-9,25.74,5.6,50.87,12.23,77,16.18,33.51,5.07,81.58,11.53,109-13.13,19.67-17.71,28.86-46.31,31.33-71.92,1.45-15.19,1.17-32.28-3.89-46.85-6.86-19.73-19.36-37.9-29.19-56.22-6.08-11.32-11.44-23.35-13.6-36.09-2.37-14.06,1.85-23.21,8.7-35.31,24.47-43.24,44.48-105.51,18.5-152.29-8.17-14.69-24-21.54-40.5-22.09-14.5-.49-28.77,3.59-42.38,8.64-25.57,9.5-66,33.72-93,17.54-15.58-9.33-21.53-28.7-32.49-42.29-11.79-14.62-29.95-22.06-48.44-23.06C187.84,10.14,167.7,14.82,150.4,22.29Z" transform="translate(-18.09 -11.03)"/><path class="cls-2" d="M150.4,22.29C120.48,35.21,97.83,56.86,76.9,81.8a328.13,328.13,0,0,0-46.16,73.4c-12.21,26.43-19.09,58.57-1.07,84,11.16,15.79,27.7,22.94,43.09,33.45,2.84,1.93,6.82,3.92,6.8,7.78,0,5.87-10.8,12.12-14.5,15.47-9.11,8.26-17.94,16.9-25.52,26.61-11.12,14.21-19.59,31-21.18,49C16.64,391.13,23.3,410.89,34.53,427c16.35,23.47,42.24,41.75,69.33,50.6,14.48,4.73,29.84,6.14,45,5.66a229,229,0,0,0,45.66-6.17c23.12-5.5,47.23-14.26,71.24-9,25.74,5.6,50.87,12.23,77,16.18,33.51,5.07,81.58,11.53,109-13.13,19.67-17.71,28.86-46.31,31.33-71.92,1.45-15.19,1.17-32.28-3.89-46.85-6.86-19.73-19.36-37.9-29.19-56.22-6.08-11.32-11.44-23.35-13.6-36.09-2.37-14.06,1.85-23.21,8.7-35.31,24.47-43.24,44.48-105.51,18.5-152.29-8.17-14.69-24-21.54-40.5-22.09-14.5-.49-28.77,3.59-42.38,8.64-25.57,9.5-66,33.72-93,17.54-15.58-9.33-21.53-28.7-32.49-42.29-11.79-14.62-29.95-22.06-48.44-23.06C187.84,10.14,167.7,14.82,150.4,22.29Z" transform="translate(-18.09 -11.03)"/><rect class="cls-3" x="192.09" y="150.86" width="33.02" height="39.53"/><rect class="cls-4" x="184.34" y="138.88" width="48.51" height="11.98"/><rect class="cls-3" x="276.85" y="182.2" width="33.02" height="39.53" transform="translate(143.94 -140.13) rotate(33.82)"/><rect class="cls-4" x="283.43" y="174.57" width="48.51" height="11.98" transform="translate(134.46 -151.73) rotate(33.82)"/><rect class="cls-3" x="143.52" y="182.2" width="33.02" height="39.53" transform="translate(387.28 269.66) rotate(146.18)"/><rect class="cls-4" x="121.44" y="174.57" width="48.51" height="11.98" transform="translate(349.13 238.46) rotate(146.18)"/><circle class="cls-4" cx="226.69" cy="304.03" r="130.71" transform="translate(-166.68 238.31) rotate(-45)"/><circle class="cls-5" cx="226.69" cy="304.03" r="113.02" transform="translate(-166.68 238.31) rotate(-45)"/><circle class="cls-6" cx="208.6" cy="193.76" r="5.39"/><path class="cls-6" d="M232.08,403.27a5.39,5.39,0,1,1-5.39-5.39A5.39,5.39,0,0,1,232.08,403.27Z" transform="translate(-18.09 -11.03)"/><path class="cls-6" d="M325.93,309.42a5.39,5.39,0,1,1,5.39-5.39A5.39,5.39,0,0,1,325.93,309.42Z" transform="translate(-18.09 -11.03)"/><path class="cls-6" d="M127.45,309.42a5.39,5.39,0,1,1,5.39-5.39A5.4,5.4,0,0,1,127.45,309.42Z" transform="translate(-18.09 -11.03)"/><line class="cls-7" x1="282.58" y1="219.02" x2="271.36" y2="230.24"/><line class="cls-7" x1="145.84" y1="355.76" x2="134.61" y2="366.98"/><line class="cls-7" x1="134.61" y1="219.02" x2="145.84" y2="230.24"/><line class="cls-7" x1="271.36" y1="355.76" x2="282.58" y2="366.98"/><path class="cls-8" d="M220.74,297.86l59-44.29-47.21,56.71a8.63,8.63,0,0,1-12.89.43h0A8.63,8.63,0,0,1,220.74,297.86Z" transform="translate(-18.09 -11.03)"/><rect class="cls-9" x="366.66" y="269.54" width="76.91" height="97.57"/><rect class="cls-10" x="377.61" y="283.3" width="11.78" height="11.78"/><polygon class="cls-11" points="378.23 284.67 383.56 289.65 391.08 280.24 383.56 293.19 375.92 288.3 378.23 284.67"/><rect class="cls-12" x="396.08" y="283.3" width="38.23" height="2.08"/><rect class="cls-12" x="396.08" y="289.19" width="26.14" height="2.08"/><rect class="cls-10" x="377.61" y="304.3" width="11.78" height="11.78"/><rect class="cls-12" x="396.08" y="304.3" width="38.23" height="2.08"/><rect class="cls-12" x="396.08" y="310.19" width="26.14" height="2.08"/><rect class="cls-10" x="377.61" y="325.31" width="11.78" height="11.78"/><polygon class="cls-11" points="378.23 326.68 383.56 331.66 391.08 322.25 383.56 335.2 375.92 330.31 378.23 326.68"/><rect class="cls-12" x="396.08" y="325.31" width="38.23" height="2.08"/><rect class="cls-12" x="396.08" y="331.2" width="26.14" height="2.08"/><rect class="cls-13" x="356.48" y="116.74" width="16.15" height="43.68"/><rect class="cls-13" x="380.12" y="106.31" width="16.15" height="54.11"/><rect class="cls-13" x="403.77" y="129.2" width="16.15" height="31.22"/><rect class="cls-13" x="427.41" y="97.97" width="16.15" height="62.45"/><polyline class="cls-14" points="349.6 89.64 349.6 160.42 450.92 160.42"/><rect class="cls-15" x="231.04" y="65.08" width="63.93" height="33.12"/><polygon class="cls-15" points="231.04 98.2 263.01 75.72 294.98 98.2 231.04 98.2"/><polygon class="cls-16" points="231.04 65.08 263.01 86.35 294.98 65.08 231.04 65.08"/><polygon class="cls-16" points="231.04 65.08 263.01 43.4 294.98 65.08 231.04 65.08"/><polygon class="cls-10" points="263.01 32.98 239.31 32.98 239.31 70.58 263.01 86.35 286.72 70.58 286.72 32.98 263.01 32.98"/><line class="cls-17" x1="249.82" y1="41.73" x2="280.93" y2="41.73"/><line class="cls-17" x1="245.1" y1="48.54" x2="280.93" y2="48.54"/><line class="cls-17" x1="245.1" y1="55.35" x2="280.93" y2="55.35"/><line class="cls-17" x1="245.1" y1="62.17" x2="280.93" y2="62.17"/><line class="cls-17" x1="245.1" y1="68.98" x2="269.11" y2="68.98"/><path class="cls-18" d="M72.33,115.33c0-11.07,14.55-20,32.5-20s32.5,9,32.5,20-14.55,20-32.5,20a50.25,50.25,0,0,1-12.42-1.52l-7.7,7.66,2.35-9.4C78.19,128.53,72.33,122.35,72.33,115.33Z" transform="translate(-18.09 -11.03)"/><path class="cls-9" d="M155,109.63c0-11.08-14.55-20-32.5-20s-32.5,9-32.5,20,14.55,20,32.5,20a50.25,50.25,0,0,0,12.42-1.52l7.7,7.66-2.35-9.4C149.16,122.83,155,116.65,155,109.63Z" transform="translate(-18.09 -11.03)"/><path class="cls-9" d="M112.42,109.75a2.36,2.36,0,1,1-2.36-2.36A2.36,2.36,0,0,1,112.42,109.75Z" transform="translate(-18.09 -11.03)"/><path class="cls-9" d="M124.88,109.75a2.36,2.36,0,1,1-2.36-2.36A2.36,2.36,0,0,1,124.88,109.75Z" transform="translate(-18.09 -11.03)"/><path class="cls-9" d="M137.33,109.75a2.36,2.36,0,1,1-2.36-2.36A2.36,2.36,0,0,1,137.33,109.75Z" transform="translate(-18.09 -11.03)"/><circle class="cls-14" cx="388.07" cy="202.13" r="6.96"/><path class="cls-14" d="M475.59,397.87a7,7,0,1,1-7-6.95A7,7,0,0,1,475.59,397.87Z" transform="translate(-18.09 -11.03)"/><path class="cls-14" d="M119.38,442a7,7,0,1,1-7-7A7,7,0,0,1,119.38,442Z" transform="translate(-18.09 -11.03)"/><path class="cls-14" d="M209.39,122.51a7,7,0,1,1-7-7A7,7,0,0,1,209.39,122.51Z" transform="translate(-18.09 -11.03)"/><path class="cls-14" d="M340.41,152a4.92,4.92,0,1,1-4.92-4.92A4.92,4.92,0,0,1,340.41,152Z" transform="translate(-18.09 -11.03)"/><polygon class="cls-19" points="426.76 228.72 421.98 233.5 417.2 228.72 414.46 231.45 419.24 236.23 414.46 241.02 417.2 243.75 421.98 238.97 426.76 243.75 429.5 241.02 424.71 236.23 429.5 231.45 426.76 228.72"/><polygon class="cls-6" points="366.4 392.89 361.62 397.68 356.83 392.89 354.1 395.63 358.88 400.41 354.1 405.19 356.83 407.93 361.62 403.15 366.4 407.93 369.14 405.19 364.35 400.41 369.14 395.63 366.4 392.89"/><polygon class="cls-13" points="346.86 33.17 342.08 37.95 337.3 33.17 334.56 35.91 339.35 40.69 334.56 45.47 337.3 48.21 342.08 43.43 346.86 48.21 349.6 45.47 344.82 40.69 349.6 35.91 346.86 33.17"/><polygon class="cls-6" points="44.22 186.24 39.44 191.02 34.66 186.24 31.92 188.98 36.71 193.76 31.92 198.54 34.66 201.28 39.44 196.5 44.22 201.28 46.96 198.54 42.18 193.76 46.96 188.98 44.22 186.24"/><polygon class="cls-16" points="386.21 305.75 383.5 308.46 380.79 305.75 379.24 307.3 381.95 310.01 379.24 312.72 380.79 314.27 383.5 311.56 386.21 314.27 387.75 312.72 385.05 310.01 387.75 307.3 386.21 305.75"/><polygon class="cls-19" points="51.01 366.98 46.23 371.76 41.45 366.98 38.71 369.72 43.49 374.5 38.71 379.28 41.45 382.02 46.23 377.24 51.01 382.02 53.74 379.28 48.96 374.5 53.74 369.72 51.01 366.98"/></g></svg>